<svg xmlns="http://www.w3.org/2000/svg" width="1260" height="829.278" viewBox="0 0 1260 829.278">
  <path id="Path_2064" data-name="Path 2064" d="M1050.162,827.029c-3.321-2.155-3.321-2.343-1.23-4.124a6.725,6.725,0,0,1,10.208,2.25c2.214,4.124,2.337,4.124-1.844,4.124A14.705,14.705,0,0,1,1050.162,827.029Zm-368.1-2.624c-1.353-.656-2.46-1.687-2.46-2.343,0-1.687,1.23-1.5,3.2.375,1.679,1.663,2.04,2.584,1.2,2.584A5.437,5.437,0,0,1,682.059,824.4Zm372.409-7.685a3.491,3.491,0,0,0-2.214-1.5c-1.968,0-10.946-5.061-11.069-6.279,0-1.031,11.192-8.717,12.79-8.717.37,0,.738.843.738,1.875a1.886,1.886,0,0,0,1.845,1.874c.984,0,1.844-.469,1.844-.937,0-.562,1.722-2.249,3.69-3.749,2.091-1.5,3.689-3.561,3.689-4.592a2.352,2.352,0,0,1,1.6-2.25c2.583-.843,3.074-.75,3.689,1.125.246.937-.246,3.092-1.107,4.779-2.337,4.03-2.214,4.5,1.107,4.967,2.337.281,1.968.656-2.459,2.062-4.55,1.5-5.289,2.156-6.519,6.186-1.257,3.763-3.693,6.227-5.682,6.226A2.346,2.346,0,0,1,1054.467,816.719Zm-.123-7.4c-1.477,1.125-.861,5.9.737,5.9,3.2,0,4.92-1.687,4.059-4.124a3.224,3.224,0,0,0-2.966-2.464A2.879,2.879,0,0,0,1054.344,809.315Zm-466.518.913a4.606,4.606,0,0,1,2.968-1.508,1.586,1.586,0,0,0,1.78-1.808,3.67,3.67,0,0,1,1.484-2.714,3.181,3.181,0,0,0,1.483-2.034c0-1.507-2.769-2.035-4.649-.905-1.483.98-1.483.905-.2-.6,1.78-2.261.494-2.939-2.671-1.357-3.857,1.885-8.308,2.789-8.308,1.583a2.839,2.839,0,0,1,1.088-1.733,1.773,1.773,0,0,0,.4-2.261,5.543,5.543,0,0,1-.891-2.11c-.2-.9-3.066-.9-6.429-.075-2.275.6-2.373.527-1.78-2.487.495-2.94.3-3.241-2.077-3.919a14.24,14.24,0,0,0-5.341-.377c-3.264.452-3.264.377-1.188-2.713,2.275-3.392,4.55-9.647,3.956-10.853a3.84,3.84,0,0,1,.594-2.94c.791-1.281.791-2.185.1-2.713-1.385-1.055-3.461.979-7.814,7.612-3.264,4.975-3.758,5.427-4.649,3.995-.692-1.13-.2-3.09,1.781-7.311,1.483-3.241,2.373-6.029,1.978-6.331-.3-.3-2.571,1.13-4.846,3.241-4.154,3.543-4.451,3.694-10.286,3.92-4.747.226-6.132,0-6.132-.754,0-1.733-4.549-7.688-5.835-7.688a3.322,3.322,0,0,1-2.077-1.13c-.791-.9-1.286-.98-2.968-.226-2.473,1.205-2.967,1.205-2.967,0,0-.6-.89-1.658-1.978-2.412s-1.978-1.658-1.978-2.11c0-.377-1.285-1.96-2.868-3.468a21.235,21.235,0,0,1-3.461-4.371,11.913,11.913,0,0,0-3.66-3.769c-1.582-1.13-2.868-2.487-2.868-3.015s-.89-1.281-1.978-1.733c-1.78-.678-1.978-1.583-1.978-7.537,0-6.105.2-6.784,2.176-7.839a12.054,12.054,0,0,1,5.044-1.206c3.264,0,9.2-3.467,26.9-15.752,1.681-1.13,4.846-3.09,7.122-4.447s4.45-3.241,4.846-4.145c.791-2.11,11.868-11.833,18.792-16.581a37.612,37.612,0,0,0,9.99-10.4c4.154-5.954,5.044-6.708,7.022-6.482,2.571.377,4.154-1.658,4.154-5.2,0-2.111,5.539-7.839,7.319-7.613.593.075.988-.678.791-1.809-.2-1.507.2-2.11,1.978-2.487,3.758-.754,4.747-.528,4.747.979,0,3.166,2.966,2.336,4.351-1.13.4-1.13-.1-2.11-1.878-3.467a38.876,38.876,0,0,1-6.132-7.462c-3.462-5.427-3.659-5.8-3.462-13.19.1-5.351.791-8.894,2.176-12.06l1.978-4.447-2.076-1.205-2.176-1.281,5.044-10.25c2.868-5.578,5.143-11.155,5.143-12.286,0-2.261-5.341-6.255-8.307-6.255-2.078,0-2.078,2.713,0,3.316.989.3,1.385.905.989,1.658a1.977,1.977,0,0,0,.495,2.261c.89.753.791,1.13-.2,1.356-.792.151-2.769.678-4.351,1.055a21.481,21.481,0,0,1-6.232.3c-5.241-.527-15.726,3.769-30.363,12.738-10.088,6.105-11.078,6.406-13.847,4.447-1.285-.9-2.769-1.583-3.263-1.432-2.374.754-18,15.9-18,17.562,0,1.13-2.966,3.467-10.483,8.291-4.846,3.09-5.144,3.165-11.671,3.015-5.143-.076-7.121-.528-8.8-1.658a20.688,20.688,0,0,0-4.847-2.337c-2.077-.6-2.966-1.583-3.856-4.221-.594-1.884-1.484-3.392-1.879-3.392-.495,0-.99-.753-1.187-1.658-.2-1.13-2.473-2.789-6.726-4.9-5.935-3.015-6.528-3.09-8.6-2.035a13.071,13.071,0,0,1-5.637.9A8.237,8.237,0,0,0,455.69,616a7.284,7.284,0,0,1-3.363,1.281,8.618,8.618,0,0,0-3.561,1.131,12.594,12.594,0,0,1-5.143,1.13c-1.781,0-3.561.377-3.858.829a2.109,2.109,0,0,1-1.78.452,14.346,14.346,0,0,0-4.55.754c-1.78.6-3.56.829-3.856.6-.791-.6,1.681-1.809,4.747-2.337a176.994,176.994,0,0,0,18.3-4.446c3.857-1.131,8.012-2.261,9.4-2.563,3.659-.754,8.9-3.317,8.9-4.372,0-1.808-2.275-1.808-7.319.075a44.543,44.543,0,0,1-6.132,1.96c-.494,0-4.451,1.055-8.8,2.336-7.418,2.261-13.154,3.09-26.21,4.145l-5.439.452,3.461-2.337c2.868-1.959,3.264-2.412,1.978-3.09a7.637,7.637,0,0,0-2.176-.754c-.494,0-.79-.527-.79-1.205,0-.905-.495-1.131-2.276-.679a29.187,29.187,0,0,1-4.648.679c-1.978.075-2.473-.3-2.374-1.658.1-1.959,0-1.959-3.066-.452-2.966,1.507-3.165,2.563-.494,2.563,2.472,0,2.67,2.638.3,3.693a3.441,3.441,0,0,1-3.561-.452c-1.583-1.13-1.879-1.055-4.154.527a10.731,10.731,0,0,0-3.066,3.242c-.692,1.734-5.242,4.974-6.924,5.049-.692,0-2.472,1.13-4.153,2.563a15.345,15.345,0,0,1-5.044,3.091c-1.088.226-2.078.9-2.078,1.356,0,.528-1.681,1.96-3.659,3.166a80.2,80.2,0,0,0-7.814,5.426c-4.747,3.694-5.637,3.995-4.747,1.357.495-1.432.2-1.884-.989-1.884a2.976,2.976,0,0,0-2.572,4.221c.594,1.205,1.583,1.582,3.659,1.507,3.858-.226,9.5-2.261,12.067-4.3,1.087-.905,2.077-1.357,2.077-.905,0,.905-9.792,7.764-10.978,7.764a40.675,40.675,0,0,1-5.539-1.583l-4.747-1.507-1.78,1.733a7.069,7.069,0,0,1-2.572,1.734,7.5,7.5,0,0,0-2.472,1.281,6.293,6.293,0,0,1-2.572,1.357c-.494,0-4.253,2.487-8.407,5.577-7.219,5.427-7.417,5.653-7.417,9.271,0,3.768,0,3.768-4.154,4.748a49.409,49.409,0,0,0-21.066,10.1,96.95,96.95,0,0,1-9.891,6.934c-1.681.753-5.934,3.165-9.593,5.351-5.143,3.09-7.417,3.995-10.088,3.995-1.88,0-3.659-.3-3.956-.679-.593-.753-8.6-3.844-9.89-3.844a16.865,16.865,0,0,1-3.661-1.658l-2.966-1.658-2.374,1.959c-1.385,1.13-2.473,2.563-2.473,3.091,0,1.432-2.67,2.261-3.263,1.055-.693-1.507-6.132,1.131-6.132,3.016,0,2.336-3.461,4.9-6.034,4.446-2.966-.6-10.285,2.261-10.285,3.995,0,2.412-1.088,3.769-2.572,3.317a5.035,5.035,0,0,0-3.363.9c-1.681,1.13-2.373,1.206-4.253.452a8.454,8.454,0,0,0-3.263-.753c-2.176.3-3.264-.151-3.858-1.583-.693-1.582-2.968-2.035-3.956-.753-.3.376.4,2.034,1.483,3.768,1.978,2.94,4.154,3.844,5.439,2.261a2.487,2.487,0,0,1,1.583-.754c1.088,0-2.176,3.694-3.264,3.769a6.271,6.271,0,0,1-2.175-1.13A5.3,5.3,0,0,0,202.989,713c-1.385,0-1.385,1.282-.1,1.884,1.484.678,1.188,2.639-.3,2.186a3.076,3.076,0,0,0-2.67.828c-1.583,1.507-3.956,1.432-3.956-.075,0-.9-.594-1.13-2.176-.753a32.417,32.417,0,0,1-4.549.452c-1.583,0-2.572.527-2.869,1.507a2.188,2.188,0,0,1-2.175,1.432c-3.857-.3-5.44.226-9.2,3.091-2.276,1.658-4.649,3.015-5.44,3.015-1.385,0-2.571.6-6.329,3.241-1.088.754-2.276,1.206-2.769.98-.4-.226-1.781.377-3.166,1.281-5.637,3.919-8.11,5.05-10.285,4.6-1.681-.3-2.473-.075-2.869.98a5.623,5.623,0,0,1-2.67,2.336c-1.781.9-2.275.9-2.968,0-.593-.678-.89-.377-.89,1.055,0,2.262-2.077,2.789-4.946,1.356-1.187-.6-1.285-.979-.2-2.261a6.089,6.089,0,0,0,1.187-2.714c0-1.733,2.868-3.241,6.132-3.317a4.7,4.7,0,0,0,3.758-1.507,4.192,4.192,0,0,1,2.968-1.507c2.275,0,6.231-2.713,5.439-3.693-.2-.377-1.681-.9-3.066-1.13-2.077-.452-3.363,0-6.626,2.336a35.189,35.189,0,0,1-7.32,3.919c-1.78.528-3.263,1.281-3.263,1.582,0,.377-1.385.829-2.968,1.131a15,15,0,0,0-5.439,2.261,13.3,13.3,0,0,1-5.144,2.336,17.652,17.652,0,0,0-4.153,1.357c-1.188.678-1.286.3-.693-2.488.4-2.185.3-3.618-.593-4.372-.99-.9-.791-1.356,1.187-2.487,2.275-1.281,2.571-1.281,4.154-.226,2.176,1.432,4.846.15,4.055-1.959-.3-1.055.2-1.508,2.078-1.734,1.978-.3,2.571-.075,2.571.98,0,2.336,3.659,1.658,7.814-1.432a26.663,26.663,0,0,1,8.012-3.844c3.856-.829,5.934-2.562,4.549-3.618-.4-.3-2.176-.075-4.056.452-2.571.679-3.758.679-5.241,0-2.869-1.356-4.946-.452-4.451,1.884.3,1.055.1,1.959-.495,1.959-.495,0-.89-.6-.791-1.356.2-2.034-3.758-1.658-4.154.452a1.614,1.614,0,0,1-1.978,1.507,1.491,1.491,0,0,1-1.385-1.959c.495-2.336-1.385-3.844-3.956-3.316-1.681.3-1.978.15-1.483-.829.4-.754.988-1.809,1.385-2.488.495-1.13.1-1.206-2.968-.754-2.868.377-3.659.3-3.659-.527,0-1.658,2.374-2.789,4.747-2.261,2.473.453,5.44-1.055,4.747-2.487-.692-1.281,1.78-2.714,3.759-2.11,1.187.377,1.483.151.988-.678-.4-.829.4-1.583,2.473-2.412,2.373-.9,3.066-.9,3.066-.226,0,.528.89-.075,1.978-1.281,1.385-1.582,1.978-1.884,1.978-.979,0,1.883,3.659,1.733,4.451-.151.3-.829.988-1.507,1.483-1.507s.99-.754,1.187-1.658c.2-.98,1.484-2.186,3.066-2.713,1.484-.527,2.671-1.432,2.671-1.96s.791-1.507,1.78-2.185c1.484-1.055,1.879-1.055,3.659-.075,1.88,1.056,1.88,1.206.3,2.11-1.878,1.055-2.373,2.714-.89,2.714a2.467,2.467,0,0,0,1.681-.829c.4-.6.89-.6,1.681,0,1.978,1.508,4.55.905,5.242-1.205.495-1.507.2-2.262-1.483-3.317-1.088-.678-1.88-1.808-1.583-2.336.693-1.432,7.22-3.769,8.505-3.166,1.385.6,6.528-3.241,7.22-5.426.495-1.432,1.088-1.734,2.869-1.432,1.582.3,2.966-.226,5.439-2.261,1.88-1.432,4.154-2.638,5.143-2.638a3.544,3.544,0,0,0,2.473-.829,9.109,9.109,0,0,1,2.968-1.431c1.681-.528,2.176-1.131,1.88-2.79-.2-1.13-.1-1.507.2-.828.693,1.733.791,1.733,5.934-.905,4.847-2.638,5.242-3.542,2.374-6.029q-4.3-3.844,1.483-.452c3.858,2.261,5.44,2.035,5.44-.754,0-2.111.3-2.186,3.066-.9,1.681.829,2.275.754,3.856-.678a6.016,6.016,0,0,1,2.968-1.733c2.077,0,10.88-5.351,10.88-6.632,0-1.734,2.275-6.18,3.165-6.18.4,0,.791.678.791,1.431a2.117,2.117,0,0,0,.791,1.884c2.077.98,25.913-12.813,25.913-15.073a.983.983,0,0,1,.988-1.055c.495,0,1.187-.829,1.583-1.884.4-1.357,1.088-1.809,2.275-1.583,1.088.3,2.571-.753,4.747-3.316,1.681-2.111,2.67-3.92,2.176-4.146-1.88-.9-.891-2.638,1.582-2.638a5.362,5.362,0,0,0,4.056-1.884,5.169,5.169,0,0,1,3.066-1.884,10.809,10.809,0,0,0,3.56-.9,9.991,9.991,0,0,1,4.451-.678c1.286.075,2.473-.3,2.769-1.055a5.743,5.743,0,0,1,2.967-1.96c1.483-.377,2.373-1.281,2.373-2.186,0-1.205.495-1.507,1.88-1.13a3.677,3.677,0,0,0,3.165-.829c1.088-1.055,1.088-1.357-.2-2.111a6.513,6.513,0,0,1-2.176-2.185,2.508,2.508,0,0,0-1.978-1.281,4.709,4.709,0,0,1-2.671-1.055,7.709,7.709,0,0,0-3.758-1.356c-2.275-.151-2.671-.6-2.671-2.487s-.4-2.26-2.176-2.11c-1.68.151-2.373-.3-2.868-1.657-.3-1.056-.988-1.884-1.483-1.884s-.89-.679-.89-1.507-.99-1.884-2.176-2.336c-3.858-1.357-5.934-4.3-6.429-9.12-.692-5.8,1.483-16.959,3.659-18.616a7.981,7.981,0,0,0,2.275-2.563,2.669,2.669,0,0,1,1.978-1.281c2.275,0,9.595-7.236,9.595-9.422a4.355,4.355,0,0,1,2.472-3.542c2.869-1.733,3.264-3.618.792-3.618-1.088-.076-.495-.528,1.385-1.131a10.928,10.928,0,0,0,4.451-2.563,4.185,4.185,0,0,1,2.868-1.582c2.572,0,2.869-.829.791-2.488-1.681-1.356-1.681-1.658-.4-2.789a4.242,4.242,0,0,0,1.483-2.111c0-1.281,1.681-1.13,2.374.226s1.681,1.432,3.956.151c1.681-.9,1.681-1.13-.3-3.618a12.279,12.279,0,0,0-4.451-3.543c-2.275-.753-2.671-1.657-4.253-8.29-.495-2.337-2.473-3.242-3.759-1.658-.4.452-2.571-.377-5.242-1.884-4.648-2.714-8.6-3.241-8.6-1.13a4.085,4.085,0,0,1-.791,2.034,1.828,1.828,0,0,0-.2,1.884c.593,1.206-8.012,4.372-11.868,4.372-2.275,0-2.374.15-1.286,1.507,1.088,1.205.89,1.658-.692,2.563a3.838,3.838,0,0,0-1.978,3.618c0,2.185-.3,2.487-2.473,2.336-3.858-.151-9.1,1.281-8.507,2.412.3.6-.2,1.432-.988,1.884-.791.527-1.385,1.205-1.385,1.582,0,1.055-7.319,5.879-8.9,5.954a3.385,3.385,0,0,0-2.473,1.658,9.714,9.714,0,0,1-3.956,2.864,14.987,14.987,0,0,0-4.154,2.337,9.251,9.251,0,0,1-3.659,1.733,10.07,10.07,0,0,0-4.549,2.714,6.509,6.509,0,0,1-4.549,2.261,7.643,7.643,0,0,0-4.154,1.582,19.127,19.127,0,0,1-2.671,2.261c-.495.3-3.758,2.412-7.121,4.6-3.264,2.186-8.11,5.276-10.583,6.858a29.493,29.493,0,0,0-7.22,6.784c-3.066,4.372-5.736,5.276-8.7,2.789a6.231,6.231,0,0,0-3.165-1.507,24.391,24.391,0,0,1-5.836-1.884,23.356,23.356,0,0,0-6.627-1.884l-2.176-.076,2.374-1.432a8.948,8.948,0,0,1,3.659-1.508c.791,0,1.385-.452,1.385-1.054,0-1.508-2.473-2.789-5.144-2.638-4.747.377-8.505-.9-9.593-3.166-.988-2.26-3.264-2.864-5.044-1.281-2.571,2.336-8.9,9.195-8.9,9.723s-8.8,9.195-13.649,13.491c-2.571,2.337-3.56,1.809-1.285-.678a7.232,7.232,0,0,0,2.077-3.316,2.01,2.01,0,0,1,.99-1.658c1.483-.754,6.132-6.482,5.637-6.935-.692-.527-4.649,1.206-4.649,2.035,0,1.13-10.385,4.522-14.439,4.748-3.363.151-3.858-.075-4.154-1.507-.3-1.356-.99-1.733-3.066-1.733a9.447,9.447,0,0,1-5.539-2.262,12.779,12.779,0,0,0-3.858-2.261,3.67,3.67,0,0,1-2.275-1.508c-1.088-1.205-.791-1.959,1.681-4.823,3.561-3.995,3.759-5.125.791-4.974-4.253.3-4.747,0-4.747-2.487a6.631,6.631,0,0,0-.89-3.467c-.791-.98-1.187-.98-2.671,0-1.483.9-1.681.9-1.187-.076a4.315,4.315,0,0,0-.3-2.864,4.06,4.06,0,0,1,0-3.392c3.264-6.708,3.066-8.291-.791-6.406-2.868,1.356-3.659.226-2.176-2.865,1.088-2.412,1.088-3.09-.494-5.5a14.409,14.409,0,0,0-3.066-3.317,2.837,2.837,0,0,1-1.286-2.412c0-2.488,3.165-2.488,7.122,0a11.965,11.965,0,0,0,5.439,1.884,9.922,9.922,0,0,1,4.549,1.281c1.781,1.281,1.978,1.205,4.747-1.281,1.484-1.432,2.869-3.091,2.869-3.618a.95.95,0,0,1,.988-.905c.495,0,2.078-1.507,3.461-3.316s7.023-6.633,12.661-10.778c5.538-4.07,11.67-8.818,13.549-10.476a17.759,17.759,0,0,1,5.637-3.618c2.473-.6,3.659-2.562,2.374-3.769a2.353,2.353,0,0,1-.4-2.562c.495-1.432.99-1.658,3.659-1.205,2.671.3,3.759,0,6.33-1.809,1.78-1.281,3.165-2.939,3.165-3.844a1.46,1.46,0,0,1,1.583-1.582c.89,0,3.659-1.733,6.231-3.769,3.363-2.714,5.44-3.769,7.319-3.769,2.671,0,3.857-1.809,1.484-2.412-.791-.226-.593-.753.495-1.808.89-.754,2.275-2.11,3.066-2.94,1.087-1.206,1.582-1.281,2.868-.452a9.622,9.622,0,0,0,4.747.678c2.571-.151,3.461-.678,3.858-2.11a3.074,3.074,0,0,1,2.768-2.11c3.166-.377,2.671-1.507-1.285-3.241-2.769-1.281-3.264-1.809-2.374-2.638s1.484-.829,3.363.15c2.176,1.055,2.473,1.055,4.154-.376a5.983,5.983,0,0,1,3.561-1.583,2.8,2.8,0,0,0,2.373-1.356,8.039,8.039,0,0,1,2.374-2.261c.988-.527,1.583-1.432,1.286-2.034-.4-.754,0-1.131,1.384-1.131a4.655,4.655,0,0,0,3.561-2.487c2.769-4.07,3.858-5.276,8.308-8.668,2.275-1.733,4.154-3.844,4.154-4.673,0-1.055.692-1.507,2.275-1.507a8.044,8.044,0,0,0,4.846-2.563c2.176-2.11,2.571-3.015,2.078-5.276-.495-2.638-.495-2.713,2.373-2.713a7.729,7.729,0,0,0,4.253-1.131c1.781-1.658,4.649-1.356,5.242.452.495,1.281.89,1.432,2.571.679,1.88-.754,2.078-.6,2.078,1.13,0,1.507.4,1.959,1.681,1.733a2.539,2.539,0,0,0,2.077-1.582c.4-1.508-5.242-6.105-6.726-5.427-.495.226-.99.151-.99-.3,0-.377.99-.829,2.176-.98,2.078-.226,2.275-.6,2.078-3.995-.2-3.618-.2-3.693,1.385-2.11a5.352,5.352,0,0,0,3.56,1.734,5.423,5.423,0,0,1,3.264,1.281c1.088,1.131,1.483,1.131,2.275.3.593-.754,1.286-.754,2.868-.151a6.244,6.244,0,0,0,3.363.452c1.286-.376,4.747-4.522,4.747-5.727,0-1.055-2.571-.829-3.956.452-1.483,1.356-5.341,1.507-4.648.15a2.12,2.12,0,0,1,2.077-.678,2.08,2.08,0,0,0,2.176-.979c.692-1.357,3.461-1.508,5.143-.226,2.078,1.582,2.571-.076,1.088-3.769-1.088-2.639-1.978-3.618-3.659-3.769-2.571-.3-2.769-1.658-.495-6.029,1.286-2.638,1.385-3.618.495-4.748-1.681-1.96-1.483-3.694.4-3.694,1.088,0,1.484-.452,1.088-1.507-.593-1.733,1.781-3.015,5.639-3.015,1.582,0,2.67-.527,3.065-1.507.3-.829,1.781-1.884,3.264-2.412a5.74,5.74,0,0,0,3.363-3.317c.99-3.09,3.759-4.07,3.759-1.432,0,1.055.593,1.884,1.285,1.884,2.769,0,5.539-.979,6.132-2.035.791-1.658-.4-3.995-2.076-3.995a1.275,1.275,0,0,1-1.385-1.13c0-1.658,3.363-1.357,5.439.376,2.671,2.261,4.846,1.96,4.154-.6-.4-1.583-.1-2.337,1.385-3.016,2.176-1.054,2.571-3.165.495-3.165-1.484,0-2.671-3.166-1.583-4.523s4.056,0,3.461,1.583c-.4.829-.2,1.432.3,1.432,1.285,0,2.275-1.96,1.681-3.166-.3-.528.4-1.809,1.384-2.789,1.681-1.658,2.078-1.734,4.847-.905,3.165.98,5.143.679,5.143-.9,0-.527,1.286-1.356,2.967-1.808,2.176-.6,2.967-1.357,2.967-2.714,0-1.507.4-1.809,1.978-1.507,2.078.452,2.869-1.507.99-2.412-.791-.376-.692-.828.1-1.582,1.583-1.432,3.858,0,3.858,2.337,0,2.563.99,4.146,2.571,4.146,1.681,0,2.869-1.809,3.759-5.427.495-2.261.3-2.94-1.583-4.145-1.583-.905-2.176-1.96-1.978-3.468.495-2.789,2.473-2.563,4.748.6a5.907,5.907,0,0,0,3.758,1.733c1.385.151,2.572.6,2.572.98s.494.678,1.088.678.89-.678.593-1.507c-.3-.98.1-1.582,1.385-1.884,2.472-.6,3.461-3.316,1.582-4.673a3.222,3.222,0,0,0-3.363-.527c-1.88.678-9.2.9-9.2.3.1-1.205,11.276-9.044,12.858-9.044.593,0,.99.678.99,1.507,0,1.055.692,1.507,2.076,1.507,2.078,0,2.078-.226,1.385-4.371-1.385-8.141-1.088-15.074.593-16.884,1.484-1.507,1.88-1.507,4.847-.6,3.066.98,3.363.905,5.637-1.205,1.285-1.206,3.461-3.166,4.846-4.3,2.374-1.96,2.473-2.186.99-3.468-1.781-1.507-1.583-6.255.3-6.707,1.483-.377,5.044,2.034,5.044,3.392,0,.753.89.979,2.67.829a5.466,5.466,0,0,0,4.451-2.714c2.275-3.543,4.649-5.426,6.33-4.9.989.3,1.385-.226,1.385-1.658,0-1.281,1.582-3.392,4.648-6.105,3.957-3.542,4.847-3.994,5.835-2.939,1.781,1.808,5.242,1.431,5.935-.754a5.764,5.764,0,0,1,1.978-2.713,2.97,2.97,0,0,0,1.384-2.261,1.37,1.37,0,0,1,1.385-1.432c1.979,0,3.066-1.432,1.781-2.412a1.872,1.872,0,0,0-2.374-.076,12.063,12.063,0,0,1-3.758,1.206l-2.473.452,2.77-1.658c1.483-.979,2.67-2.035,2.67-2.487,0-.377,2.176-.678,4.847-.6,4.253.075,5.044-.226,5.934-1.733,1.583-2.563,1.385-3.995-.495-3.995-1.285,0-1.483-.527-.988-2.638.692-2.864.791-2.789-7.715-3.694-5.143-.527-6.527-2.11-2.473-2.939a10.844,10.844,0,0,1,6.132.6c3.166,1.205,3.166,1.205,5.836-1.131,1.583-1.281,2.77-3.09,2.77-4.145a3.73,3.73,0,0,1,2.077-2.864c1.879-1.055,1.879-1.281.495-3.844-.791-1.507-1.978-2.713-2.473-2.713a1,1,0,0,1-1.088-.905c0-.452.693-.3,1.781.377,2.373,1.658,2.67,1.583,5.143-.377,2.769-2.337,3.561-1.13.99,1.507-1.781,1.809-2.078,2.865-1.583,5.05.593,2.337.3,3.166-1.483,4.6-1.781,1.507-1.978,1.959-.89,2.939s.89,1.508-1.286,3.242c-3.066,2.412-3.264,3.316-1.088,4.748,1.385.829,1.978.6,4.451-1.583,1.583-1.431,2.868-3.015,2.868-3.391,0-.453.99-1.131,2.176-1.507a5.793,5.793,0,0,0,3.165-3.166c.594-1.281,1.781-2.563,2.769-2.714,1.088-.226,1.583-.829,1.286-1.507-.4-.6.4-1.583,1.88-2.336,1.483-.678,2.571-1.884,2.571-2.638A3.369,3.369,0,0,1,454.6,224.6a3.5,3.5,0,0,0,1.483-2.487,11.186,11.186,0,0,1,1.188-3.995c.989-2.185.89-2.713-.693-4.07-1.88-1.582-1.88-1.658,0-2.488,3.561-1.657,6.429-1.959,6.429-.829,0,.679,1.088,1.055,2.968,1.055,2.275,0,2.967.3,2.967,1.508,0,2.261,2.869,1.808,4.747-.754a9.042,9.042,0,0,1,4.451-2.94c1.978-.527,2.671-1.281,2.671-2.638,0-1.055-.4-2.111-.989-2.337-1.978-.9-.988-2.035,1.385-1.583,3.561.679,7.517-2.035,7.517-5.2,0-2.11.593-2.789,2.968-3.769a17.2,17.2,0,0,0,5.439-4.07,16.348,16.348,0,0,1,3.461-3.467c1.484-.678,8.506-8.969,11.176-13.115,1.188-1.959,2.769-3.467,3.363-3.316,1.781.452,4.551-3.317,4.056-5.427-.693-2.713,2.176-4.446,6.627-3.919,4.748.6,6.429,0,6.429-2.186a3.238,3.238,0,0,1,1.878-2.563c1.583-.6,1.781-1.13,1.088-3.091-1.385-3.693.693-4.823,5.441-2.939,2.571.979,4.351,1.205,5.836.753,2.571-.678,3.956-.226,4.846,1.658a2.252,2.252,0,0,0,4.154-.151c.494-1.205,1.483-1.507,4.945-1.507,2.374,0,4.649-.377,4.946-.753a3.271,3.271,0,0,1,2.374-.754c.989,0,3.758-1.582,6.131-3.543a25.108,25.108,0,0,1,5.639-3.768c.79-.076,2.868-1.432,4.747-3.015,3.956-3.392,4.351-2.865.79,1.281-1.385,1.582-2.275,3.316-1.878,3.693.989,1.281,2.275.979,2.966-.678a7.4,7.4,0,0,1,3.561-2.638c1.583-.678,2.868-1.582,2.868-2.11,0-.453,1.484-1.658,3.264-2.638a49.122,49.122,0,0,0,6.132-3.919c2.571-2.035,2.77-2.487,1.682-3.844-1.088-1.281-.89-1.809,1.285-3.769,1.385-1.281,2.473-2.864,2.473-3.618a4.359,4.359,0,0,1,1.978-2.714c1.088-.753,1.978-1.808,1.978-2.412,0-.528,1.088-.98,2.473-.98,1.583,0,2.473.452,2.473,1.206a.9.9,0,0,0,1.286.829,1.84,1.84,0,0,0,1.187-1.733,6.1,6.1,0,0,1,1.483-3.091c1.088-1.281,1.781-1.431,3.166-.9,1.385.6,2.275.3,4.055-1.055,3.264-2.789,6.627-7.236,6.627-8.894,0-1.205.495-1.431,1.978-1.055,1.583.377,1.978.151,1.978-1.281a3.8,3.8,0,0,0-.99-2.563q-1.038-.791.594-3.165c1.483-2.337,3.363-3.242,3.363-1.658,0,.377.494.753.988.753.593,0,.99-.678.99-1.507a1.435,1.435,0,0,1,1.385-1.507,5.022,5.022,0,0,0,2.67-1.205c.99-.98.99-1.432,0-2.789-1.186-1.356-1.088-1.658.495-2.563,1.583-.829,1.78-1.808,1.583-5.878-.4-4.673.79-6.482,2.175-3.694.89,1.734,3.363.076,3.759-2.563.2-1.657.89-2.11,3.56-2.261,3.957-.3,8.11,1.582,8.11,3.618,0,1.055.99,1.658,3.264,2.11,4.549.9,4.945,3.919.791,6.255-3.264,1.884-3.858,2.94-1.681,2.94,2.571,0,2.868,1.582.593,3.392-1.187.979-1.879,2.11-1.583,2.487.3.453-.79.98-2.571,1.281-9,1.281-11.868,2.186-12.758,3.92a2.9,2.9,0,0,1-2.078,1.733c-2.967,0-11.373,10.476-8.9,11.079,1.385.377,1.583,2.488.2,2.488a10.5,10.5,0,0,1-3.066-.98c-1.681-.754-2.176-.678-3.857.98-2.373,2.337-2.67,7.16-.4,7.838a17.259,17.259,0,0,0,3.561.453c3.263,0,1.483,1.733-3.066,2.864-4.847,1.206-6.034,2.714-3.659,4.522,1.285,1.055,1.978,1.055,3.56.3a13.7,13.7,0,0,1,4.352-.905,4.092,4.092,0,0,0,3.758-2.11c.989-1.508,2.176-2.111,4.55-2.261,1.978-.151,3.165-.678,3.165-1.357,0-1.281.495-1.356,2.966-.15,1.683.829,2.473.527,6.232-2.261,2.275-1.733,4.846-3.166,5.637-3.166,1.78-.075,8.7-3.919,10.583-6.029,2.176-2.412,4.549-1.959,3.758.678-.495,1.658-.2,2.412,1.088,2.94,1.681.753,1.483,1.582-.791,4.07-2.176,2.337-.1,2.261,4.253-.075q6.826-3.844,6.825,1.13c0,2.11,1.583,2.336,4.055.6,1.88-1.357,1.484-3.317-.692-3.317-2.473,0-2.571-1.959-.2-4.6,2.571-2.94,9.4-8.216,10.484-8.216.4,0,2.472-1.733,4.648-3.768,2.176-2.11,5.044-4.071,6.33-4.3,2.275-.452,7.022-3.919,15.824-11.682,2.77-2.412,3.066-3.166,2.473-5.427-.3-1.582-1.187-2.714-1.978-2.714s-1.385-.376-1.385-.753c0-1.055,1.286-.98,2.77.151a1.64,1.64,0,0,0,2.374,0c.89-.679.79-1.658-.2-4.071a15.288,15.288,0,0,0-2.076-3.919c-.4-.377-.3-1.507.2-2.488.495-1.055.693-2.11.4-2.487-.3-.3.79-.98,2.472-1.357,3.166-.9,3.759-2.035,4.154-8.441.3-3.92.4-4.146,3.166-4.372a6.111,6.111,0,0,1,4.648,1.281c1.583,1.281,3.166,1.583,8.407,1.583h6.33L762.1,49.443c-2.966,3.392.3,3.919,13.748,2.11,2.176-.226,3.659-.151,3.659.3,0,.377,1.188,1.583,2.572,2.714,2.373,1.733,2.572,2.337,2.077,5.351-.692,3.618.693,4.9,5.242,4.9a3.224,3.224,0,0,1,2.966,1.884c1.088,2.186,1.978,2.337,6.132.678,2.769-1.13,3.264-1.055,7.715.377,5.934,1.959,7.912,1.959,7.912.151A5.539,5.539,0,0,1,816,64.743l1.78-1.733,1.188,1.657c1.384,1.96,3.263,2.11,5.044.528.989-.9.989-1.432.2-2.035a3.565,3.565,0,0,1-1.187-2.638c0-1.055-.593-1.733-1.483-1.733-2.77,0-1.484-2.186,1.78-2.865,2.671-.527,3.165-.979,2.968-2.638-.2-1.809.2-2.035,2.67-2.035a5.578,5.578,0,0,1,4.55,1.884,5.731,5.731,0,0,0,7.714.678c2.275-1.657,1.978-2.939-1.483-5.953s-2.275-3.392,3.263-1.206c4.451,1.884,11.869,1.582,19.386-.6a38.154,38.154,0,0,1,9.593-1.582,28,28,0,0,0,7.814-1.281c3.264-1.131,3.659-1.131,5.341,0a5.629,5.629,0,0,0,3.759.828,3.941,3.941,0,0,1,3.263.754c1.978,1.808,3.264,1.507,6.627-1.582,1.78-1.658,3.461-2.487,4.154-2.186,1.385.678,1.483,3.392.2,4.975-.593.753-.3,1.582.99,2.638a14.019,14.019,0,0,1,2.868,3.543c.89,1.733.593,2.412-2.176,5.049-1.78,1.658-3.956,3.242-4.846,3.468a2.421,2.421,0,0,0-1.78,2.337c0,1.356-.495,1.808-2.176,1.808-3.066.075-8.308,3.618-9.1,6.18a2.561,2.561,0,0,1-2.472,2.11,10.817,10.817,0,0,0-4.352,1.507,10.59,10.59,0,0,1-3.561,1.507,10.6,10.6,0,0,0-3.56,1.959c-1.978,1.507-2.869,1.809-3.759,1.131-1.978-1.508-3.561-.829-4.549,1.959-.89,2.261-.791,3.09.4,3.995,1.385.979,1.781.9,3.759-.905,2.473-2.186,8.209-3.994,9.2-2.789a2.925,2.925,0,0,0,2.175.528c.989-.151,1.583.226,1.484.9-.2.829.89,1.206,4.253,1.281,4.747.151,11.77,2.337,11.77,3.618a4.059,4.059,0,0,0,.791,1.733c.495.527.988,2.864,1.187,5.2.4,4.221,1.78,6.407,3.264,5.05,6.626-5.8,10.088-9.346,10.088-10.325,0-.679.89-1.432,1.978-1.658,1.186-.3,4.549-2.412,7.714-4.748,11.473-8.517,12.957-9.422,14.441-8.517,1.088.678,1.583.678,2.077.075,1.781-2.186,20.276,1.432,20.276,3.995,0,.6,1.483,1.582,3.264,2.11a23.923,23.923,0,0,1,5.934,3.09c3.461,2.563,5.341,2.638,9.692.226a49.66,49.66,0,0,1,6.429-2.864,24.81,24.81,0,0,0,5.638-3.091,9.953,9.953,0,0,1,3.66-1.959c.494,0,.988-.678.988-1.507s1.088-2.035,2.374-2.638a35.35,35.35,0,0,0,6.626-5.351c2.276-2.261,4.747-4.071,5.44-4.071s1.978-.979,2.868-2.261c2.868-4.221,23.539-20.35,26.11-20.35a5.446,5.446,0,0,0,3.066-1.13,2.872,2.872,0,0,1,2.473-.829c1.681.452,2.374.075,14.836-9.27,9.2-6.859,11.769-8.442,13.55-8.141,1.582.377,3.066-.3,5.934-2.562,2.373-1.809,3.659-3.543,3.362-4.146-.693-1.281.2-1.583,6.527-2.035l4.649-.3-1.483,2.11c-.792,1.206-1.978,2.186-2.769,2.186-.693,0-2.375,1.281-3.66,2.789-1.385,1.658-3.166,2.789-4.056,2.638-.989-.076-2.373.979-3.659,2.864-2.671,3.919-2.571,4.3.4,4.673,1.879.3,2.473.075,2.473-.9,0-1.959,2.473-3.166,5.341-2.563,2.078.377,2.572.15,3.166-1.507.593-2.035,3.066-3.995,3.956-3.242.3.226-.593,1.583-1.978,3.016s-2.571,3.09-2.571,3.768-.989,1.583-2.176,2.11a12.369,12.369,0,0,0-3.956,2.488l-1.781,1.582-3.461-2.864c-1.978-1.507-3.858-2.789-4.253-2.789-1.583.075-7.122,6.029-6.528,7.085.3.678-.3,1.432-1.483,1.959-2.571.98-2.671,2.789-.3,3.317a2.236,2.236,0,0,1,1.78,2.11c-.1,1.13.594,1.808,2.176,2.035,2.176.452,2.078.528-1.286,3.392-1.878,1.658-3.461,3.769-3.461,4.673a1.342,1.342,0,0,1-1.583,1.507c-2.472-.151-2.67,1.281-.4,2.412,1.682.754,1.978.754,1.978-.226a1.275,1.275,0,0,1,1.385-1.13,9.115,9.115,0,0,0,3.659-1.432,6.834,6.834,0,0,1,3.66-1.055c.593.226,1.187,0,1.187-.452s1.385-1.808,2.968-3.09c4.056-3.166,3.858-.98-.2,2.487-4.153,3.543-7.714,7.01-7.714,7.613,0,1.206,2.176,0,9.89-5.577,4.649-3.241,8.8-5.954,9.3-6.029.4,0,.594.753.2,1.657a15.383,15.383,0,0,0-.594,3.769c0,1.733-.4,2.11-2.473,2.11-1.483,0-2.473.452-2.473,1.055s-.89,1.356-1.978,1.582-2.076.829-2.076,1.206c-.593,2.336-.2,2.563,4.055,2.638,6.429.076,9.3.905,7.813,2.261A4.839,4.839,0,0,1,1087,64.818a4.781,4.781,0,0,0-3.066,1.356,19.876,19.876,0,0,1-3.956,2.638c-2.968,1.431-3.759,4.3-1.187,4.3a5.3,5.3,0,0,1,2.869,1.055c2.175,1.582,9,.3,12.66-2.487,2.868-2.11,3.263-2.186,4.253-.979.989,1.13,1.286,1.13,2.77.226.89-.6,1.583-1.583,1.385-2.261-.2-.98,1.681-3.844,3.956-6.105.2-.226,1.088.453,2.076,1.432,1.681,1.658,1.88,1.658,3.462.452a3.025,3.025,0,0,0,1.088-3.542c-.495-1.432,0-3.242,1.385-5.577,1.878-2.94,2.373-3.242,4.054-2.563a3,3,0,0,1,1.978,2.638c0,1.13.593,1.884,1.385,1.884,1.781,0,8.507-5.653,8.507-7.16,0-.6,1.187-1.281,2.768-1.582,4.747-.754,4.945-.905,4.451-2.865-.692-2.638-1.978-3.166-4.154-1.658-1.978,1.357-4.055,1.583-4.055.453,0-.453.4-.754.99-.754a5.142,5.142,0,0,0,2.571-1.959c1.285-1.432,1.385-2.11.494-2.789-1.285-.98-1.384-2.035-.2-3.392.692-.9,1.187-.9,2.967-.076,1.088.6,2.078,1.583,2.078,2.186A9.032,9.032,0,0,0,1140.012,41a8.422,8.422,0,0,1,1.483,3.769c0,1.959-3.065,5.577-6.131,7.387-1.682.979-1.979,1.507-1.187,2.11,1.781,1.356,5.044.15,8.506-3.091,1.681-1.583,3.56-2.94,4.154-2.94,1.582-.075,4.748-2.261,7.319-5.049a12.8,12.8,0,0,1,6.231-3.392,12.311,12.311,0,0,0,5.934-2.94,8.123,8.123,0,0,1,4.154-2.337,7.685,7.685,0,0,0,4.154-2.638,7.354,7.354,0,0,1,3.066-2.487,8.229,8.229,0,0,0,3.363-1.884,9.018,9.018,0,0,1,4.747-1.884c2.176,0,2.373-.226,1.88-2.261-.4-1.206-.2-2.412.2-2.638.495-.151,1.187,1.206,1.583,3.091.593,3.392.593,3.467-4.154,6.557-12.659,8.367-16.122,11.834-11.572,11.834a1.435,1.435,0,0,1,1.385,1.507c0,.98-.495,1.356-1.484,1.055-2.175-.678-12.858,7.537-11.967,9.12a1.259,1.259,0,0,0,1.582.753c.593-.3.99.452.99,1.809,0,2.487.988,3.241,4.846,3.542,3.164.226,6.034-1.582,6.132-4.145.2-1.658.2-1.733.593-.3.4,1.658-2.769,7.236-4.649,8.141-.593.3-.79.829-.4,1.205.3.377.1,1.206-.495,1.734a2.028,2.028,0,0,0,1.385,3.467c2.176,0,9.4-6.18,9.4-8.065,0-.528,2.275-2.864,4.946-5.125,2.768-2.261,4.944-4.522,4.944-4.9,0-.452.693-.754,1.483-.754,2.077,0,1.879.829-.988,3.769-1.385,1.432-2.473,3.166-2.473,3.919a1.439,1.439,0,0,1-1.483,1.357c-2.275,0-5.44,2.789-5.44,4.823,0,2.638,1.286,2.94,4.056,1.131a36.976,36.976,0,0,1,4.649-2.714c1.187-.678,2.175-1.658,2.175-2.337,0-.6,1.681-2.714,3.66-4.6s3.759-3.618,3.957-3.768a6.167,6.167,0,0,1,2.571.452c2.868,1.055,5.143.075,4.253-1.658a2.39,2.39,0,0,1,1.088-2.789c1.681-1.432,1.681-1.582-.593-2.94-2.967-1.808-4.747-1.808-5.539,0a3.507,3.507,0,0,1-5.044,1.507c-1.978-1.205-1.681-2.487.692-4.145,1.978-1.357,7.813-7.537,7.813-8.291,0-.226-.89-.151-1.978.075-1.78.452-1.978.226-1.385-1.431.99-3.166-1.582-2.261-6.032,1.959-4.352,4.3-8.21,6.18-4.649,2.261,2.571-2.638,2.769-3.844.692-4.371-2.077-.6-.79-1.809,1.879-1.809,1.286,0,3.956-1.281,6.132-2.864,4.945-3.618,12.463-12.06,11.77-12.964-.89-1.13-4.055-.9-5.439.377a5.121,5.121,0,0,1-2.868,1.13c-.891,0,.4-.979,2.868-2.186,6.033-2.94,9.989-6.255,10.285-8.743.2-1.13,1.681-2.865,3.661-4.145,2.67-1.734,4.351-2.186,7.912-2.261,4.054,0,5.044.377,8.209,2.789,1.978,1.582,3.561,3.543,3.561,4.371,0,.905,1.583,3.995,3.363,6.859,3.066,4.673,3.363,5.728,2.868,9.421-.395,3.09-.1,4.824,1.088,6.632,1.681,2.412,1.681,2.563-1.78,7.989-1.879,3.016-4.649,6.18-6.033,7.01s-2.473,2.035-2.473,2.714a1.076,1.076,0,0,1-.989,1.206,1.224,1.224,0,0,0-.99,1.281c-.1,1.658-3.758,5.125-6.133,5.728-.988.3-1.78.979-1.78,1.657,0,.6-1.187,2.563-2.671,4.3-1.582,1.658-3.956,4.447-5.341,6.181a15.243,15.243,0,0,1-5.143,4.07,13.542,13.542,0,0,0-5.242,4.748,10.431,10.431,0,0,1-5.934,4.9c-3.363,1.055-4.155,2.11-2.373,2.94,1.087.527-1.681,4.145-3.166,4.145-1.187,0-6.329,4.07-7.121,5.653a2.433,2.433,0,0,1-2.078,1.13,1.535,1.535,0,0,0-1.483,1.582c0,.829-.495,1.281-.988,1.055a16.548,16.548,0,0,0-3.364-.829c-1.978-.226-2.275-.075-1.879,1.206a3.811,3.811,0,0,0,1.385,1.959c1.78.754.792,1.884-2.671,3.091-2.769,1.055-3.461,1.658-3.066,2.94.3,1.13-.593,2.336-2.571,3.768a17.161,17.161,0,0,0-4.253,4.522c-.693,1.281-3.956,4.447-7.22,7.085-3.363,2.638-6.034,5.125-6.034,5.5s.891.829,1.979,1.055c2.175.453,2.571,2.487.89,4.9-.89,1.281-.792,1.809.593,2.563a17.657,17.657,0,0,0,2.868,1.281c.693.151.693.98-.3,2.487a13.591,13.591,0,0,0-1.583,4.6c-.3,2.261-.1,2.487,2.572,2.487,2.373,0,2.868.3,2.868,1.884,0,1.281.495,1.884,1.78,1.884,2.176,0,3.363-.678,5.341-3.166,1.088-1.205,3.759-2.563,6.924-3.467,9.792-2.714,9.693-2.714,9.693-.6,0,1.884.3,2.035,5.143,2.337a8.229,8.229,0,0,1,3.659,1.432c2.176,1.507,5.044,1.13,5.044-.678a1.045,1.045,0,0,1,.89-1.131c.495,0,1.385-1.13,1.978-2.487,1.484-3.166,7.517-7.99,11.869-9.346,4.451-1.432,14.44-1.658,18.4-.377,2.472.754,3.263,1.733,4.944,5.8.99,2.714,2.473,4.9,3.166,4.9,1.385,0,3.263,2.337,3.263,4.146,0,.678,1.385,2.713,2.967,4.522,1.682,1.884,2.967,4.3,2.967,5.652,0,1.96.4,2.337,2.968,2.714,4.549.754,3.858,2.337-4.549,9.873-2.968,2.563-5.539,5.5-5.934,6.407-.495,1.582-5.44,4.823-10.979,7.16a5.638,5.638,0,0,0-2.769,2.638c-.4.979-2.67,3.241-5.044,5.125-3.857,3.09-4.252,3.693-3.758,6.18.495,2.035,1.186,2.865,2.868,3.166,3.166.6,4.056,4.975,1.978,9.421-1.88,4.071-1.285,5.8,2.571,7.311,3.66,1.432,3.264,2.714-.89,3.693-1.879.377-3.165,1.206-3.165,1.959a3.265,3.265,0,0,1-1.483,2.186,3.668,3.668,0,0,0-1.484,2.713c0,.98-.593,1.809-1.286,1.809s-3.462,1.582-6.033,3.467c-3.857,2.789-4.648,3.769-4.154,5.276.4,1.055.2,1.808-.4,1.808s-1.483.829-1.978,1.884a2.783,2.783,0,0,1-3.066,1.658c-2.176-.151-3.165.753-4.846,4.221a5.736,5.736,0,0,1-3.264,2.714c-3.758,1.13-5.242,2.939-3.758,4.748a4.276,4.276,0,0,1,.593,3.693c-.495,1.658-.3,2.186.79,2.186.791,0,2.671,1.206,4.056,2.639,4.945,4.9,8.012,5.049,11.374.678,1.087-1.432,2.473-2.563,3.065-2.563,1.781,0,1.089,1.206-2.571,4.07-3.758,2.94-4.451,6.331-1.087,5.879,2.076-.3,2.175,1.431.2,4.3-1.582,2.487-10.088,8.366-11.868,8.366a8.914,8.914,0,0,0-3.463,1.507c-2.076,1.356-11.275,5.653-17.7,8.215-1.385.6-4.747,2.261-7.517,3.769a38.5,38.5,0,0,1-7.912,3.467c-2.077.528-2.968,1.281-2.968,2.337-.1,2.186-2.076,3.844-6.527,5.578-1.978.828-3.858,1.959-4.154,2.638-.4.754-1.88,1.13-4.154,1.13-2.966,0-4.549.678-9,3.92-2.966,2.11-5.242,4.3-4.946,4.823s-.2,1.357-.988,1.809a2.993,2.993,0,0,0-1.385,2.035c0,1.206-2.968,4.6-7.615,8.743-1.781,1.507-3.264,3.618-3.264,4.673,0,1.131-.593,1.884-1.483,1.884-.792,0-1.186.452-.89,1.055.3.678-.4,1.206-2.077,1.507-2.176.452-2.572.829-2.077,2.261.4,1.205-.1,2.186-1.385,3.09a4.627,4.627,0,0,0-1.978,3.166c0,.9-.4,1.733-.89,1.733s-1.385.98-2.078,2.186a12.576,12.576,0,0,1-3.461,3.844c-2.769,1.96-2.374,3.015.988,3.015,1.286,0,2.473.376,2.671.9.3.678,1.88.678,6.924,0a86.257,86.257,0,0,1,9.989-.9c1.978,0,3.857-.377,4.154-.754.3-.452,3.858-.753,7.912-.753,5.935,0,7.517.226,8.308,1.281.791,1.13,1.187,1.205,2.176.376,3.066-2.261,7.121-.226,7.517,3.92.2,2.412.989,8.743,1.187,9.572a17,17,0,0,0,3.165,2.11c2.77,1.583,3.166,1.583,4.747.528,2.176-1.507,10.188-1.884,12.264-.6,3.759,2.412,4.847-2.185,2.078-8.441-.891-1.96-1.385-3.694-1.188-3.92.3-.151,1.681.377,3.066,1.281,2.176,1.206,2.671,2.185,2.671,4.673,0,3.618,1.187,5.5,2.966,4.673.594-.3,2.176.226,3.462,1.13l2.275,1.658,1.583-2.337c1.187-1.733,1.483-3.392.988-6.481-.395-2.262-.395-4.146,0-4.146a11.189,11.189,0,0,1,3.066,1.206c1.978.979,2.77,1.055,3.956.3a3.178,3.178,0,0,0,1.484-2.034c0-.754.89-1.055,3.263-.905a13.868,13.868,0,0,0,5.637-.9c1.583-.753,4.551-1.13,8.407-1.055,5.737.151,5.934.226,6.528,2.336a5.237,5.237,0,0,1-2.968,6.03c-1.583.9-1.978,4.6-.692,6.18,1.187,1.507,3.758,1.055,7.022-1.281,3.363-2.488,9.495-3.694,11.077-2.186a7.266,7.266,0,0,1,1.681,2.639c.593,1.431.3,1.582-2.473,1.507-1.78-.076-3.363.3-3.56.753-.3.528.2.98,1.088.98a44.89,44.89,0,0,1,8.01,2.337c5.242,1.884,6.429,2.638,6.429,4.07a2.815,2.815,0,0,0,1.681,2.487c1.385.678,1.385.828-.593,1.657a10.879,10.879,0,0,1-4.648.452c-2.869-.6-8.7,1.508-7.913,2.79.3.527.891,1.507,1.187,2.186.4.753.989,1.356,1.484,1.356a3.106,3.106,0,0,0,1.78-1.356c.792-.98.99-.98,1.088-.151,0,.6,1.187,1.884,2.769,2.789l2.67,1.733-2.868,1.884c-2.373,1.658-2.67,2.336-2.176,4.522.4,1.432.2,2.714-.4,3.015-.593.227-.791,2.638-.593,5.728.3,4.221.1,5.427-1.088,5.728a2.312,2.312,0,0,1-2.473-.753c-1.483-2.035-6.23-3.618-7.615-2.562-1.682,1.281-1.286,2.563,1.483,4.22,2.869,1.734,2.671,3.845-.395,3.845a5.526,5.526,0,0,0-2.968.9c-.89.678-2.374.527-6.726-.829-4.253-1.356-5.736-1.582-6.626-.9-.891.753-.791,1.205.692,2.035a8.255,8.255,0,0,0,3.164,1.055,2.52,2.52,0,0,1,1.781,1.131c.3.6,1.582,1.13,2.868,1.13a12.647,12.647,0,0,1,5.242,1.658c1.582.9,3.066,1.733,3.263,1.883.4.151-1.088,3.317-3.462,7.538a9.112,9.112,0,0,0-1.385,3.768c-.1,1.206-.1,1.281-.989.076-.692-.829-.594-1.884.1-3.166,1.285-2.035-.1-4.221-2.473-4.221a3.081,3.081,0,0,1-2.078-1.733c-.791-1.206-1.78-1.583-3.857-1.507-2.275.151-2.671-.076-2.275-1.281.3-.829.3-1.507,0-1.507-1.286,0-7.22,5.276-7.22,6.406,0,1.281-.89,1.432-4.353.377-2.175-.6-2.373-.98-1.878-3.317a7.2,7.2,0,0,0-.1-3.919c-.593-1.131-.89-1.131-2.868.3l-2.275,1.658-1.385-2.864a23.974,23.974,0,0,1-1.88-6.18c-.495-2.865-.988-3.468-2.966-3.618-1.385-.151-2.77.15-3.166.828-.494.679-1.78.98-3.363.679-2.077-.3-2.473-.076-2.473,1.582,0,1.432-.692,2.11-2.868,2.638-3.066.829-4.055,3.016-4.055,9.271,0,2.789-.4,3.693-1.484,3.693q-2.67,0-.3-4.974c.89-1.96.89-3.091-.2-5.5-2.176-5.125-4.154-3.844-4.847,3.166,0,.753-1.385,1.658-3.066,2.185-1.878.452-3.165,1.432-3.461,2.563-.3.98-.692,2.638-.99,3.694a2.4,2.4,0,0,1-2.571,1.884c-3.66,0-6.33,3.166-3.363,4.07,1.88.528,1.978,2.412.1,2.94a9.374,9.374,0,0,1-3.561,0c-1.978-.377-2.176-.226-1.78,1.507.692,2.789-1.781,9.5-4.154,11.456a6.287,6.287,0,0,0-2.275,3.844c-.2,1.884.2,2.186,2.572,2.412,2.175.226,2.967-.075,3.363-1.281a2.289,2.289,0,0,1,1.878-1.582c1.683,0,1.781,1.658.2,2.864-.89.678-.692.98.693,1.357,1.088.377,1.978.226,2.275-.3.791-1.808,2.868-.829,2.966,1.357.1,2.336-1.878,3.241-6.132,2.789-1.384-.076-2.67.829-4.351,3.316-3.066,4.3-2.473,6.256,1.583,5.577a24.458,24.458,0,0,1,7.615.754c3.165.829,5.044.98,5.638.527a2.937,2.937,0,0,1,2.373-.376,3.588,3.588,0,0,0,4.352-3.694,2.436,2.436,0,0,1,1.78-2.638,10.219,10.219,0,0,0,2.869-1.658c1.582-1.658,2.275-.829,2.373,2.638.4,10.476-2.176,18.616-6.429,19.9-3.461.979-3.858,2.035-1.385,3.316l2.176,1.206-2.176,1.206a3.972,3.972,0,0,0-2.176,3.015c0,1.432-.494,1.809-2.473,1.809-1.384,0-2.472.453-2.472.98s-.99,1.281-2.176,1.658a3.94,3.94,0,0,0-2.571,2.487c-.2,1.131-1.385,2.035-3.265,2.562-3.659.98-9.2,6.482-7.715,7.839.693.679.594,1.507-.593,2.865-1.285,1.507-1.384,2.185-.494,3.467,1.285,1.884-.2,3.919-2.473,3.317a2,2,0,0,0-1.978.376,3.185,3.185,0,0,1-2.275.829c-.99.076-3.462,2.11-5.638,4.673-10.187,11.758-10.484,12.06-12.461,11.682a3.983,3.983,0,0,0-4.847,3.693c0,1.055-.593,1.809-1.483,1.809-2.868,0-6.429,1.809-6.429,3.241,0,.9-.495,1.281-1.385,1.055-1.78-.528-4.648,1.884-6.032,4.974-.791,1.884-1.583,2.336-3.363,2.186-3.166-.226-5.044,1.131-5.044,3.694,0,1.658-.593,2.412-2.374,2.94a6.222,6.222,0,0,0-3.363,2.864,11.161,11.161,0,0,1-4.054,3.995c-1.681.979-3.066,2.337-3.066,3.09,0,1.507-3.363,2.789-6.528,2.638a1.771,1.771,0,0,0-2.175,1.733,5.75,5.75,0,0,1-1.286,2.713c-.593.6-.4,1.055.593,1.281.791.3,1.187.98.89,1.583-.4.829-1.483.979-4.054.678-3.264-.452-3.462-.377-2.77,1.356a7.519,7.519,0,0,0,2.275,2.94,9.778,9.778,0,0,1,2.868,3.241c1.781,2.865,3.858,3.317,6.726,1.281,1.879-1.356,2.671-1.507,4.45-.753,1.682.678,1.978,1.281,1.484,2.487a10.479,10.479,0,0,0-.693,3.542,2.865,2.865,0,0,1-1.088,2.412c-1.285.6,2.078,5.878,3.759,5.878a7.186,7.186,0,0,1,2.373.678c1.187.6.593,1.96-3.165,7.764-2.473,3.844-4.846,8.366-5.144,10.024a82.364,82.364,0,0,1-3.066,8.818c-2.868,6.633-2.868,11.607-.2,11.456,1.385-.076,1.682.3,1.187,1.884-.3,1.055-.692,2.638-.89,3.542a3.423,3.423,0,0,0,.989,3.015c1.286,1.432,1.385,1.357,3.462-.3a10.5,10.5,0,0,1,2.473-1.658c.692,0-1.484,3.92-4.055,7.311-1.286,1.734-2.373,3.618-2.373,4.146-.1,1.206-6.034,6.255-8.308,6.859-.89.3-1.583.98-1.583,1.658a1.242,1.242,0,0,1-1.285,1.13c-.693,0-2.375,1.055-3.66,2.412-1.781,1.884-2.078,2.638-1.088,3.693,1.088,1.356,1.483,3.693.692,3.693a19.257,19.257,0,0,0-1.978.452c-.988.3-1.583.076-1.583-.678,0-.678-1.483-1.733-3.363-2.411-3.857-1.432-4.945-2.865-3.56-4.824.494-.753.593-1.658.2-1.885a14.455,14.455,0,0,1-1.879-3.618c-.99-2.562-.891-3.467.3-5.275,1.582-2.261,1.187-3.618-1.088-3.618s-2.275-1.809.2-3.242c2.374-1.431,3.264-6.029,1.384-6.934-1.187-.528-4.054,2.562-4.054,4.3,0,.754-.4,1.356-.99,1.356-1.78,0-1.582-.6,4.056-10.325,1.187-2.186,1.978-4.221,1.682-4.447s0-1.281.692-2.337c.791-1.13,1.188-2.261.891-2.638-.791-.905-3.363.829-3.363,2.11a.984.984,0,0,1-.99,1.055c-1.286,0-1.286-1.206,0-3.015,1.187-1.734,2.968-8.215,3.462-12.511a7.473,7.473,0,0,1,2.769-5.125c2.77-2.261,4.154-6.256,2.671-7.613-.693-.678-.593-1.206.495-1.884a3.365,3.365,0,0,0,1.483-2.411,7.543,7.543,0,0,1,1.682-3.392c1.583-1.809,1.583-1.959-.1-2.94a4.941,4.941,0,0,0-3.166-.527c-2.175.6-1.681-1.884.495-2.788,1.385-.528,2.176-.528,2.571,0,.495.6,1.088.527,2.078-.076,1.582-.979,1.878-3.392.395-4.07-.593-.3-.395-1.431.495-3.166,1.582-2.939,1.088-4.6-.99-3.241a16.188,16.188,0,0,0-3.363,4.221c-1.978,3.166-4.055,3.844-4.055,1.357,0-.6-.693-1.055-1.484-1.055s-1.483.453-1.483,1.055c0,.528-.791,1.206-1.88,1.432-.989.151-2.373,1.507-3.065,3.091-.99,2.412-.99,3.015.593,4.3,1.385,1.205,1.483,1.734.494,3.166-.692.9-1.878,2.638-2.67,3.919a29.719,29.719,0,0,1-2.473,3.392c-.495.6-1.583,2.261-2.374,3.542-1.582,2.563-2.868,3.091-3.956,1.734a3.547,3.547,0,0,0-2.472-.754c-2.276,0-8.9,7.085-8.9,9.5a2.417,2.417,0,0,1-1.484,2.109c-.79.226-1.483.754-1.483,1.206s-1.483,1.96-3.165,3.467a22.758,22.758,0,0,0-4.252,4.372c-2.176,3.693-5.144,5.728-8.407,5.728-3.166,0-3.166-.076-2.671-2.714.4-1.884.2-2.788-.89-3.09-1.781-.528-1.781-2.488.1-2.488a3.584,3.584,0,0,0,2.473-1.507,3.769,3.769,0,0,1,2.671-1.507c1.187,0,1.385-.226.593-.829-.693-.528-.792-1.583-.2-3.166,1.186-3.166,2.473-3.995,4.352-2.789a2.23,2.23,0,0,0,2.967,0c2.176-1.432,1.78-2.262-1.088-2.262-2.373,0-2.571-.226-1.978-2.337.594-2.185.4-2.336-1.681-1.808a34.77,34.77,0,0,1-5.638.678c-3.461.075-5.341,1.959-3.066,3.091a1.771,1.771,0,0,1,1.088,1.356c0,.6-.3.527-.89-.151-1.484-1.733-4.352-.377-3.66,1.734.692,2.186-.3,3.09-1.879,1.432-1.978-2.035-4.451-.678-4.451,2.412,0,1.809-.4,2.638-1.483,2.638-1.781,0-2.078-4.9-.4-5.728.693-.3.792-.678,0-1.281a1.872,1.872,0,0,0-2.373.075c-.99.678-1.78.6-3.363-.226-1.88-.98-2.275-.753-6.231,3.995-2.374,2.789-5.242,5.652-6.528,6.331-1.187.753-3.363,3.768-4.846,6.708-2.571,5.125-2.769,5.276-5.539,4.824-2.966-.528-3.956.753-1.879,2.336.693.527,0,1.507-2.076,3.015l-3.066,2.185-1.78-1.658a6.094,6.094,0,0,0-2.77-1.733c-.495,0-2.571,1.356-4.649,3.09-2.67,2.261-3.461,3.542-3.066,4.748a10.7,10.7,0,0,1,.593,2.487c0,.528.693.98,1.484.98,2.077,0,1.878.98-.495,2.11-1.088.528-1.978,1.432-1.978,2.036a4.115,4.115,0,0,1-1.978,2.411,4.356,4.356,0,0,0-1.978,2.714c0,1.884,2.966,2.563,4.45,1.055,2.078-2.186,3.759-1.583,3.067,1.13a7.139,7.139,0,0,1-6.825,5.125,7.56,7.56,0,0,0-4.154,1.507c-1.681,1.432-1.681,1.582-.2,2.864,2.077,1.658,2.175,3.166.3,3.166-.891,0-1.188.6-.791,1.885.2,1.055,0,1.884-.593,1.884a1.685,1.685,0,0,1-1.385-1.281c-.2-.9-1.385-1.356-4.056-1.356-1.978-.076-3.659.15-3.659.527,0,.3-.593.6-1.187.6a14.764,14.764,0,0,0-4.253,1.959c-2.869,1.809-2.869,1.884-1.088,2.94,1.978,1.13,1.483,1.507-2.769,2.035a4.425,4.425,0,0,0-2.967,2.488,11.915,11.915,0,0,1-6.133,6.255,17.868,17.868,0,0,0-4.451,3.467,13.677,13.677,0,0,1-4.549,3.392c-1.285.452-2.275,1.431-2.275,2.261,0,1.959-2.671,3.92-4.451,3.392-.988-.3-1.285-1.055-.89-2.186s-.3-2.94-2.076-5.2c-2.869-3.693-4.847-4.371-5.737-1.959-.3.829-.89,1.507-1.385,1.507-1.286,0-4.253-4.447-3.659-5.577.791-1.658-1.682-2.337-3.165-.9-.99,1.13-1.484,1.13-3.166.377-2.275-1.055-3.165-2.865-3.165-6.482,0-2.864-1.483-3.618-8.012-4.221-3.956-.376-4.846-.226-6.824,1.357-1.583,1.281-2.968,1.734-4.253,1.432a8.472,8.472,0,0,0-4.253.452c-2.374.979-2.275.979-9.99-3.769a33.424,33.424,0,0,0-5.934-1.658,31.85,31.85,0,0,1-6.232-1.809,16.723,16.723,0,0,0-4.351-1.733l-2.769-.829.692-5.05a26.921,26.921,0,0,1,1.781-6.858c.988-1.658.791-2.11-2.769-4.372-3.659-2.336-3.858-2.637-2.868-4.748a7.042,7.042,0,0,0,.692-4.145c-.3-1.206-.1-1.96.593-1.96s1.88-1.13,2.671-2.412A39.963,39.963,0,0,1,816,664.763a12.871,12.871,0,0,0,1.483-2.411c.3-.829,1.188-1.13,2.473-.829,1.583.3,2.078.075,2.078-1.206,0-.829-.3-1.582-.693-1.582a12.085,12.085,0,0,1-3.264-1.432c-1.978-1.206-2.175-1.658-1.187-2.563.89-.753.99-1.281.2-1.658-1.385-.6-3.165.3-2.374,1.281.4.453-.1.6-1.187.3-1.285-.3-3.264.6-6.627,2.94-3.758,2.638-4.846,3.09-5.341,2.11-.791-1.583,1.088-3.694,3.066-3.392,1.781.226,2.275-2.487.495-3.242-1.286-.6-4.846,2.111-4.846,3.694a1.785,1.785,0,0,1-.989,1.582c-1.285.6,0,5.125,1.781,6.105,2.175,1.205.494,2.638-2.374,2.11-1.385-.3-2.373-.151-2.373.376,0,.453-.891.829-1.879.829a3.471,3.471,0,0,0-2.968,2.261,4.745,4.745,0,0,1-2.571,2.714c-.792.226-1.483.9-1.483,1.507,0,.527-.89,1.356-1.978,1.808s-1.781,1.131-1.484,1.507,0,1.432-.692,2.261c-1.088,1.356-.99,1.733.495,2.563.89.527,1.681,1.432,1.681,1.885,0,1.507-2.671,3.09-5.242,3.09-1.583,0-3.956,1.206-6.726,3.467a148.107,148.107,0,0,1-19.485,12.211c-3.461,1.809-5.341,1.582-5.044-.452.3-2.94-.1-3.392-2.966-2.94-3.264.527-4.946-1.13-2.968-3.015,1.385-1.206.495-2.035-2.373-2.261-6.825-.6-9.99-1.356-12.068-2.94a8.781,8.781,0,0,0-3.363-1.808c-1.385,0-8.01,6.331-8.01,7.688,0,.6-1.187,2.336-2.671,3.844-5.242,5.2-6.725,6.934-8.9,10.175-2.571,3.768-7.319,8.667-7.912,8.14-.2-.151.1-1.733.693-3.467s.89-3.392.593-3.618c-.791-.6-4.55,2.186-4.55,3.392,0,.527-.692,1.205-1.483,1.431-.792.3-1.483.905-1.483,1.507,0,.678-1.088,1.055-2.968,1.055-3.363,0-3.858,1.055-.988,2.261,2.769,1.13,2.571,3.015-.3,3.015a9.153,9.153,0,0,0-4.451,1.507,8.1,8.1,0,0,1-3.166,1.507c-.593,0-.79.754-.4,1.809.791,2.562-.89,3.015-5.044,1.205-4.846-2.11-5.836-1.959-5.142.754.493,1.809.2,2.487-1.781,3.467-2.769,1.356-4.549,7.311-2.571,8.818a3.8,3.8,0,0,1,1.088,2.714V748.8l-1.978-1.884a6.554,6.554,0,0,1-1.978-2.864c0-1.884-2.671-1.733-5.737.377-1.78,1.13-3.165,2.336-3.165,2.714a8.368,8.368,0,0,0,2.571,2.412l2.671,1.884-4.352-.452c-3.165-.3-4.748-.151-5.539.527-1.483,1.508-2.473,9.045-1.187,10.175a3.08,3.08,0,0,1,.3,2.864c-.495,1.583-.89,1.81-1.978,1.131-1.583-.98-9.99-.3-12.066,1.055-.89.527-1.088,1.733-.692,3.693.593,2.563.494,2.864-1.385,2.864-2.473,0-2.769,2.11-.495,2.789a3.055,3.055,0,0,0,2.868-.753,6.322,6.322,0,0,1,4.154-1.281,8.341,8.341,0,0,0,3.956-.829c2.374-1.809,3.165-.226,1.187,2.261-1.878,2.337-2.076,2.412-3.363,1.131-1.285-1.357-1.385-1.357-3.363,0-1.582,1.13-1.78,1.658-.989,2.939.89,1.206.79,1.657-.495,2.185-1.088.452-1.483,1.206-1.088,2.111.4.979-.1,1.658-1.385,2.186a5.811,5.811,0,0,0-2.571,2.261c-.89,2.185-5.44,4.145-9.891,4.145-3.758.075-3.956.226-4.253,2.487-.4,2.714,1.088,3.316,2.671,1.205.495-.753,1.285-1.055,1.681-.753.989.753-5.539,5.8-7.615,5.8a5.029,5.029,0,0,0-2.869,1.055,2.925,2.925,0,0,1-2.571.678c-.791-.226-1.385,0-1.385.452,0,1.055-4.945,4.523-6.528,4.6a31.713,31.713,0,0,0-5.934,1.884c-3.075,1.191-4.776,1.776-5.467,1.775C586.883,811.626,587.078,811.155,587.827,810.228Zm9.3-11.532c-1.088.829-.594,1.734.89,1.734.791,0,1.483-.3,1.483-.679,0-.723-.864-1.282-1.634-1.282A1.206,1.206,0,0,0,597.125,798.7Zm9.692-1.959c-.3.452.1,1.357.99,2.035,1.483,1.13,1.582,1.055,1.582-.829,0-1.28-.509-2.024-1.206-2.024A1.932,1.932,0,0,0,606.816,796.736Zm-3.363-8.743c-.988.9-.988,1.131.4,1.131.89,0,1.582-.528,1.582-1.131s-.2-1.13-.4-1.13A5.724,5.724,0,0,0,603.454,787.993Zm18.2.9c.792.6,3.561-.376,3.561-1.281,0-.376-.593-.753-1.385-.753C622.245,786.863,620.762,788.219,621.652,788.9Zm-1.385-4.672c0,.753.693,1.13,1.781.979.89-.151,1.582-.6,1.483-.979-.146-.669-.941-.99-1.71-.99C621.031,783.236,620.267,783.575,620.267,784.225ZM576.552,773.6a1.514,1.514,0,0,0,2.176-1.206c0-.3-.4-.6-.89-.6C576.453,771.789,575.562,773.146,576.552,773.6Zm-28.781-4.372c-.792.6.1,1.809,1.385,1.809a1.143,1.143,0,0,0-.2-2.257A1.986,1.986,0,0,0,547.77,769.226Zm5.737-11.909c.4.3-.989.905-3.166,1.357-3.165.678-4.253,1.431-6.923,5.275-2.968,4.3-4.056,7.086-2.573,7.086.4,0,3.066-1.961,5.935-4.372,5.143-4.3,5.143-4.3,4.253-1.659a23.851,23.851,0,0,0-.99,2.789c0,.151.693.227,1.583.227,1.385,0,3.066-1.131,8.7-5.879,1.78-1.507,1.78-1.733.2-4.3-1.187-1.959-2.275-2.639-4.056-2.639C554,755.207,552.32,756.413,553.507,757.317Zm45.5,9.949c-.593.754,2.176,2.035,3.066,1.356.2-.226-.2-.829-.988-1.281a2.672,2.672,0,0,0-1.286-.492A.988.988,0,0,0,599,767.266Zm-4.451-.754A1.484,1.484,0,1,0,596.036,765,1.517,1.517,0,0,0,594.552,766.513Zm-11.67-2.185c-.99,1.13-.99,1.884-.3,2.412s1.186.376,1.681-.453a4.049,4.049,0,0,0,.2-2.412c-.087-.434-.214-.661-.414-.661C583.8,763.214,583.432,763.572,582.882,764.327Zm-3.561-8.592a6.146,6.146,0,0,1-2.868.6c-1.583,0-2.275.527-2.473,1.884a6.557,6.557,0,0,1-1.088,2.638c-1.088,1.13-.791,5.652.4,5.652a.964.964,0,0,0,.99-.979,1.854,1.854,0,0,1,.988-1.432c.495-.3,1.385-1.96,1.978-3.769.791-2.412,1.385-3.165,2.77-3.015.99.151,1.681-.226,1.681-.979a1.01,1.01,0,0,0-1.042-1.129A2.274,2.274,0,0,0,579.321,755.735Zm25.122,6.707c0,1.281.4,1.583,2.076,1.281,1.286-.3,1.88-.9,1.681-1.959-.267-1.324-1.056-1.945-1.842-1.944C605.4,759.82,604.443,760.744,604.443,762.443Zm-10.88-2.336a4.85,4.85,0,0,0,2.571,1.131,1.275,1.275,0,0,0,1.385-1.131c0-.753-.989-1.13-2.571-1.13C592.772,758.976,592.476,759.127,593.564,760.106Zm-.4-14.018c-1.087.9-1.385,1.582-.692,1.959,1.583.678,1.385,7.16-.2,7.16-2.176,0-6.033,4.523-4.747,5.5,1.188.9,3.363-.753,5.044-3.844a2.241,2.241,0,0,1,2.968-1.281c1.483.377,2.176-.075,3.363-2.261,1.583-2.865,1.285-4.523-.989-5.2a2.118,2.118,0,0,1-1.385-1.96c0-.961-.309-1.451-.9-1.451A4.57,4.57,0,0,0,593.167,746.088Zm-28.583,7.31c.3.678-.3,1.583-1.483,2.261-2.374,1.281-1.88,3.316.791,3.316a6.49,6.49,0,0,0,3.857-2.111c1.681-1.658,2.175-1.808,2.966-.9s1.385.829,3.561-.754c2.275-1.657,2.571-2.261,1.978-5.351-.593-3.392-.495-3.618,2.77-5.5,4.055-2.336,4.648-2.411,4.648-.452,0,2.487,2.968,2.789,5.342.528,1.187-1.13,2.571-2.035,3.164-2.035,1.978,0,5.439-2.412,4.648-3.316-.4-.528-.1-.3.891.452a6.129,6.129,0,0,0,3.165,1.356c2.176,0,3.066-1.959,1.681-3.316-.89-.754-.89-1.206-.1-1.583.692-.3.89-1.431.494-2.713-.692-2.488,1.088-3.543,4.154-2.337,2.572.979,4.253.3,4.253-1.734a2.246,2.246,0,0,1,1.385-2.11c2.176-.679,5.539-6.256,4.254-7.236s-1.681-.98-4.056.075c-.989.452-4.846.9-8.407,1.055-9.2.452-10.88.829-11.968,2.94a3.225,3.225,0,0,1-2.966,1.884c-1.681,0-1.978.3-1.484,1.507a1.3,1.3,0,0,1-.79,1.959,3.677,3.677,0,0,0-2.078,1.658,11.086,11.086,0,0,1-4.351,4.9,10.983,10.983,0,0,0-2.769,3.015,13.245,13.245,0,0,1-3.462,3.392c-1.088.527-1.878,1.431-1.878,1.96s-1.088,1.733-2.473,2.713-2.473,2.412-2.473,3.165a1.352,1.352,0,0,1-1.385,1.357c-2.077,0-.792-5.276,1.681-6.784a2.784,2.784,0,0,0,1.483-3.015l-.3-1.809-3.561,2.412c-1.978,1.356-4.253,2.411-5.143,2.411-.988,0-1.285.452-.988,1.432a1.471,1.471,0,0,1-.594,1.884c-1.681.829-1.385,5.728.3,5.728a3.172,3.172,0,0,0,2.077-.753,1.791,1.791,0,0,1,1.414-.724A2,2,0,0,1,564.584,753.4Zm38.672,5.125a1.514,1.514,0,0,0,2.176-1.206c0-.3-.4-.6-.89-.6C603.157,756.714,602.267,758.072,603.256,758.524Zm7.418-4.372c-.4.829.1,1.658,1.286,2.337,1.681.905,1.878.905,2.175-.15a3.763,3.763,0,0,0-.2-2.337,1.687,1.687,0,0,0-1.523-1.029A2.016,2.016,0,0,0,610.674,754.152Zm-28.583-2.638c-.4.528,0,1.281.791,1.733a6.32,6.32,0,0,1,2.175,2.337c.593,1.206.891,1.281,1.583.377.693-.754.495-1.432-.495-1.96-.791-.452-1.483-1.206-1.483-1.658a1.467,1.467,0,0,0-2.571-.829Zm1.582-3.015c0,.829.495,1.281.99,1.055a1.784,1.784,0,0,0,.988-1.583.983.983,0,0,0-.988-1.055C584.167,746.917,583.672,747.6,583.672,748.5Zm21.859-12.436c-.2.15.3.9,1.285,1.733,1.483,1.205,1.483,1.432.1,2.337-1.681,1.055-1.979,3.015-.594,3.015a10.938,10.938,0,0,1,3.759,1.96c4.253,3.015,10.385,4.372,7.417,1.582a1.519,1.519,0,0,1-.3-1.96c.593-.753.99-.678,1.385.226a2.63,2.63,0,0,0,2.176,1.206c1.88,0,1.978-1.959.1-2.487-.692-.226-1.582-1.884-1.978-3.618-.494-2.487-.3-3.392.89-3.844.791-.376,1.484-.979,1.484-1.356,0-.338-1.251-.48-3.053-.48C613.973,734.377,606.711,735.165,605.531,736.064Zm-1.088,10.853c0,.376.692.753,1.483.753s1.483-.377,1.483-.753c0-.453-.692-.754-1.483-.754S604.443,746.464,604.443,746.917Zm-33.529-7.462c.791.9.988.9,1.78,0a2.117,2.117,0,0,0,.4-2.11,1.886,1.886,0,0,0-1.286-.98C570.518,736.365,569.925,738.324,570.914,739.455Zm55.287-4.372c-2.275.075-2.967.452-2.967,1.432s2.67.678,3.956-.452c.724-.737.794-1.023-.165-1.023C626.807,735.04,626.533,735.055,626.2,735.084Zm-9.89-5.8c0,.452-.692,1.13-1.583,1.356-2.966.9-.79,2.261,3.957,2.412,4.351.075,4.648,0,4.153-1.432a2.825,2.825,0,0,1,.495-2.562,1.268,1.268,0,0,0,.4-1.733,3.019,3.019,0,0,0-2.352-.8C619.138,726.518,616.311,727.72,616.311,729.28Zm61.321-6.105a1.274,1.274,0,0,0,1.385,1.13,4.844,4.844,0,0,0,2.571-1.13c1.088-.979.791-1.13-1.383-1.13C678.622,722.045,677.632,722.422,677.632,723.175ZM166.2,717.6c-1.78,2.638.495,3.618,3.561,1.432,1.385-.98,2.473-2.035,2.473-2.412,0-.479-.617-.686-1.464-.686C169.216,715.932,166.9,716.623,166.2,717.6Zm432.016.377c-.79.6.1,1.808,1.385,1.808a1.143,1.143,0,0,0-.2-2.256A1.987,1.987,0,0,0,598.211,717.975ZM149.58,716.316c-1.484,1.356-.791,3.467,1.088,3.467,1.483-.075,6.231-2.864,5.637-3.316a6.5,6.5,0,0,0-3.686-.9A4.878,4.878,0,0,0,149.58,716.316Zm30.265-.452c-1.583,1.356-2.275,3.165-1.187,3.165,1.187,0,5.341-2.412,5.836-3.468.363-.727-.171-1.072-1.047-1.072A6.142,6.142,0,0,0,179.845,715.864ZM129.3,710.588a1.665,1.665,0,0,0,.4,1.658,3.184,3.184,0,0,1,.4,2.714c-.593,1.884,2.671,4.07,6.132,4.07,2.176,0,2.176-.076.693-2.336-1.088-1.733-1.188-2.563-.4-3.166,1.78-1.356,1.286-2.035-1.385-2.035-1.385,0-2.473-.376-2.473-.753,0-.482-.757-.728-1.57-.728A2.491,2.491,0,0,0,129.3,710.588Zm65.871.3c-1.681,1.281-1.484,1.582,1.385,3.994,1.978,1.583,2.769,1.885,3.659,1.207.89-.754.791-1.13-.495-1.885a3.181,3.181,0,0,1-1.78-2.186c0-1.042-.6-1.658-1.4-1.658A2.3,2.3,0,0,0,195.175,710.89Zm-19.781,2.186c.1,2.94,1.483,3.467,3.858,1.507,2.67-2.186,2.473-4.9-.593-5.954-1.484-.528-2.473-1.507-2.473-2.412,0-.98-.99-1.809-2.571-2.261-2.968-.9-2.473-.9-4.55.075a2.8,2.8,0,0,0-1.78,2.337c0,1.206.495,1.432,2.275,1.131a3.663,3.663,0,0,1,.687-.065C172.8,707.434,175.3,710.033,175.394,713.076Zm-15.627-3.92c.4,3.995,1.088,5.352,2.769,5.352.593,0,.791-.754.4-1.734a3.739,3.739,0,0,1,.99-3.392c1.385-1.507,1.385-1.658,0-1.658-.89,0-1.583-.528-1.583-1.131s-.692-1.13-1.483-1.13C159.767,705.463,159.47,706.292,159.767,709.156Zm-8.505,1.131c-3.264,2.412-4.747,4.221-3.363,4.221a25.1,25.1,0,0,0,3.956-1.583c3.659-1.658,7.022-4.9,5.637-5.5-.495-.226-1.088-1.431-1.385-2.713-1.088-4.071-6.627-2.262-6.627,2.185,0,1.959,1.681,2.714,3.759,1.582a1.12,1.12,0,0,1,.329-.159A10.913,10.913,0,0,1,151.261,710.287Zm541.306,1.658c1.187,1.054,1.483,1.054,3.066-.453,1.285-1.281,1.483-1.959.792-3.09a3.757,3.757,0,0,0-2.473-1.432C691.974,706.97,690.985,710.513,692.567,711.945Zm-548.526-2.94c.89,2.713,2.176,3.768,3.461,2.789.791-.6.693-1.432-.1-2.789a3.664,3.664,0,0,0-2.63-2.063C144.022,706.943,143.593,707.64,144.041,709.006Zm40.946,2.713c1.385,1.055,3.659-.376,2.671-1.658a2.463,2.463,0,0,0-1.583-.829C184.592,709.232,183.8,710.814,184.987,711.718Zm521.921-9.647a2.432,2.432,0,0,1-2.077,1.13,1.517,1.517,0,0,0-1.484,1.508,6.428,6.428,0,0,1-1.187,3.015c-.99,1.13-.99,1.658,0,2.412,1.088.829,1.583.678,2.769-.527.792-.829,1.187-1.884.99-2.336-.3-.528.593-1.658,1.978-2.639,1.285-.9,2.373-2.11,2.373-2.713,0-.651-.615-.973-1.331-.973A2.264,2.264,0,0,0,706.908,702.071Zm-510.25-1.733c-5.143,2.487-5.637,3.317-2.67,3.995,1.087.226,1.978.979,1.978,1.582s.692,1.055,1.483,1.055c.89,0,1.483-.452,1.385-.979-.3-1.281,1.187-3.844,2.769-4.523a2.135,2.135,0,0,0,1.285-1.658c0-.9-.335-1.358-1.151-1.358C200.782,698.453,199.166,699.078,196.658,700.338Zm500.26,1.356c-1.978,1.658-1.385,3.769,1.187,3.769,3.166,0,4.451-1.13,3.661-3.241-.373-1.3-1.032-1.941-1.947-1.941A5.029,5.029,0,0,0,696.919,701.694Zm-533.294-2.713a11.008,11.008,0,0,1-2.968,1.884c-2.571.979-3.066,3.09-.692,3.09,1.385,0,7.319-3.844,7.319-4.748,0-.508-.936-.8-1.879-.8A2.353,2.353,0,0,0,163.624,698.982Zm13.253,1.657c-.79.6.1,1.809,1.385,1.809a1.143,1.143,0,0,0-.2-2.257A1.988,1.988,0,0,0,176.877,700.639Zm10.484-2.261c-.693,1.507,1.088,2.864,3.165,2.261,1.286-.3,1.385-.753.495-1.959a2.852,2.852,0,0,0-2.1-1.456A1.832,1.832,0,0,0,187.361,698.378Zm34.814.3a3.554,3.554,0,0,0,2.275.754c1.484,0,1.484-.151.2-.754a6.024,6.024,0,0,0-2.275-.734C221.9,697.945,221.78,698.19,222.175,698.68Zm-31.155-2.261c0,.376.692.753,1.483.753s1.484-.377,1.484-.753c0-.452-.693-.754-1.484-.754S191.021,695.967,191.021,696.419ZM704.535,692.8c-1.583,1.205-1.485,3.618.1,3.618,1.88,0,3.659-1.583,3.659-3.166a1.305,1.305,0,0,0-1.467-1.343A3.938,3.938,0,0,0,704.535,692.8Zm-531.812,1.356c-1.087,1.281.495,2.412,2.078,1.432.692-.452,1.088-1.131.791-1.508a1.646,1.646,0,0,0-1.331-.642A2.064,2.064,0,0,0,172.723,694.158Zm18-8.969c-2.176,2.336-2.078,3.467.4,4.07,1.583.377,1.781.754.89,1.507-1.483,1.357-.4,2.639,2.078,2.639,1.088,0,1.879.527,1.879,1.205a.9.9,0,0,0,1.285.829c.593-.151,1.088-1.281.99-2.411-.2-1.432.494-2.563,2.275-3.543,1.285-.829,2.176-1.809,1.879-2.11-.693-.829-5.44.678-5.44,1.658,0,.3-.593.6-1.385.6s-1.187-.6-.89-1.734a3.732,3.732,0,0,0-.99-3.091c-.6-.637-.945-.974-1.3-.974C191.986,683.837,191.563,684.269,190.724,685.189Zm49.353,7.236c2.176.6,5.539-2.411,5.144-4.6a2.523,2.523,0,0,0-1.879-1.808,2.967,2.967,0,0,0-.381-.025C239.67,685.993,237.03,691.48,240.077,692.424Zm-34.715-4.3c-2.077,1.733-1.285,3.768,1.385,3.768,2.473,0,2.968-.678,2.374-3.241-.32-1.3-.7-1.941-1.346-1.941C207.217,686.715,206.458,687.188,205.362,688.128Zm-37.089,1.885c0,.6.692,1.13,1.483,1.13s1.483-.528,1.483-1.13-.692-1.131-1.483-1.131S168.273,689.41,168.273,690.013Zm7.417-4.9c-.988,1.281,1.187,2.789,2.473,1.808.791-.6.593-1.13-.4-1.733a2.369,2.369,0,0,0-1.254-.518A1.04,1.04,0,0,0,175.69,685.113Zm537.152-.151c-.692.9,1.187,2.035,2.078,1.356.4-.3.2-.829-.4-1.281a1.68,1.68,0,0,0-.984-.405A.9.9,0,0,0,712.842,684.963Zm-532.306-2.487c-.692,1.357.3,2.638,2.078,2.638s2.571-1.131,1.879-2.562a2.32,2.32,0,0,0-2.076-1.169A2,2,0,0,0,180.536,682.475Zm28.683.452a1.182,1.182,0,0,0,.4,1.583,1.938,1.938,0,0,0,3.166-1.357c0-.659-.768-1.025-1.626-1.025A2.525,2.525,0,0,0,209.219,682.927Zm8.012-.075c-1.781,1.432-1.681,1.507.1,1.507,1.978,0,4.352-1.281,4.352-2.412,0-.417-.363-.608-.911-.608A6.243,6.243,0,0,0,217.231,682.852Zm35.605.754c.988,1.205,4.154.828,4.846-.528.495-.829-.1-1.733-1.582-2.638-2.968-1.733-3.66-1.658-7.122.979-3.363,2.412-2.868,3.618.89,2.336a6.717,6.717,0,0,1,2.1-.448A1,1,0,0,1,252.836,683.606Zm-12.166-2.261c-1.582,1.959-1.483,2.185.791,1.733,1.088-.226,1.978-1.055,1.978-1.808,0-.923-.285-1.376-.762-1.376C242.182,679.893,241.478,680.384,240.671,681.345Zm-45.694-7.688c-2.868,1.13-5.539,2.789-6.034,3.693a3.139,3.139,0,0,1-2.373,1.733c-2.077,0-1.583,2.186.791,3.317,2.077.979,5.242-.3,4.846-2.035-.1-.678.99-1.432,2.868-1.959,3.363-.9,7.814-3.768,7.814-5.05,0-.85-.655-1.267-1.863-1.267A18.437,18.437,0,0,0,194.977,673.657Zm8.407,6.934c-.988,1.281,1.187,2.789,2.473,1.809.791-.6.593-1.13-.4-1.733a2.37,2.37,0,0,0-1.254-.519A1.039,1.039,0,0,0,203.384,680.591Zm15.924-2.638c-.3.6-.1,1.13.3,1.13.495,0,1.088-.527,1.483-1.13.3-.6.1-1.13-.3-1.13C220.3,676.823,219.7,677.35,219.308,677.953Zm5.044-2.94c-1.385,1.055-.692,2.638,1.088,2.412.89-.151,1.681-.754,1.681-1.281a1.661,1.661,0,0,0-1.773-1.447A1.632,1.632,0,0,0,224.352,675.013Zm18.595-7.236a3.973,3.973,0,0,1-2.473.754c-2.769,0-3.561,1.582-1.484,2.789,2.769,1.432,6.232,1.206,7.418-.6.89-1.13.791-1.808-.1-2.638a3.09,3.09,0,0,0-2-1.008A1.759,1.759,0,0,0,242.946,667.778Zm-3.066-2.563a2.8,2.8,0,0,0,2.768.905c1.781-.151,2.374-.829,2.572-2.714.3-2.035,0-2.412-1.681-2.412C241.265,660.995,239.089,663.558,239.88,665.215Zm8.505-7.537c-1.385,2.638-1.286,3.693.495,4.824a3.361,3.361,0,0,1,1.483,2.412c0,.979.593,1.356,1.681,1.206,2.275-.3,2.769-2.412.791-3.844-2.176-1.658-1.879-2.035,1.385-2.035,3.659,0,4.549-.98,2.868-3.015a5.674,5.674,0,0,0-4.278-1.62C250.9,655.607,249.02,656.309,248.386,657.679Zm6.924-5.276c0,1.281,2.175,1.055,2.769-.3.2-.528-.3-.9-1.188-.9S255.309,651.724,255.309,652.4Zm801.524-3.769c-1.286,1.432-1.385,2.111-.495,2.789s1.583.452,3.066-.98a6.556,6.556,0,0,0,1.978-2.864c0-.614-.432-.9-1.058-.9A5.134,5.134,0,0,0,1056.834,648.634Zm-1.385-9.119a.894.894,0,0,0,1.088.979c.593-.15,1.088-.6,1.088-.979s-.495-.829-1.088-.98a.906.906,0,0,0-.226-.029A.917.917,0,0,0,1055.449,639.515Zm-71.607-5.879a1.354,1.354,0,0,0,.89,2.487c.791,0,1.483-.452,1.483-1.055a1.658,1.658,0,0,0-1.6-1.675A1.358,1.358,0,0,0,983.842,633.635Zm11.077-7.16c-2.175,1.657-2.571,8.441-.494,7.914a2.075,2.075,0,0,0,1.285-1.733,13.925,13.925,0,0,1,.792-3.468c.833-2.168.74-3.409-.107-3.409A2.758,2.758,0,0,0,994.919,626.476Zm39.364.15c.791,1.507,3.363,1.583,3.363.151a1.473,1.473,0,0,1,1.186-1.356,1.034,1.034,0,0,0,.495-1.583,2.527,2.527,0,0,0-2.077-1.281C1035.371,622.556,1033.491,625.119,1034.283,626.626Zm44.507-3.542c-1.088.829-.594,1.733.89,1.733.792,0,1.484-.3,1.484-.678,0-.724-.863-1.283-1.633-1.283A1.207,1.207,0,0,0,1078.79,623.084Zm-288.8-2.036a14.191,14.191,0,0,0,3.956,1.055c2.374.452,3.264.226,3.759-.753a2.15,2.15,0,0,0-.495-2.261c-1.286-1.206-2.473-1.356-3.363-.3a1.939,1.939,0,0,1-1.88.3,2.392,2.392,0,0,0-.62-.083C789.954,619.006,788.951,620.258,789.988,621.049Zm276.834-1.206c-.593,2.714-.494,2.865.891,2.035a3.4,3.4,0,0,0,1.582-2.035c0-.6.891-1.733,2.078-2.638,1.088-.829,1.878-1.884,1.682-2.412a1.707,1.707,0,0,0-1.537-1.158C1069.864,613.636,1067.688,616.219,1066.822,619.842ZM784.449,616.9c-1.483,1.356-.593,3.392,1.483,3.392q1.484,0,1.484-2.262c0-1.466-.378-2.2-1.073-2.2A3.249,3.249,0,0,0,784.449,616.9Zm291.473-10.4a1.5,1.5,0,0,0,.3,1.733c.99,1.206,3.956.377,4.253-1.13.129-.588-1.541-1.017-2.915-1.017A2.353,2.353,0,0,0,1075.922,606.5ZM453.91,603.789c-2.869,1.206-2.078,2.336,1.385,2.035q3.263-.226,3.56-1.583c.225-.814-.509-1.263-1.694-1.263A8.072,8.072,0,0,0,453.91,603.789ZM305.75,600.4c0,1.357,3.066,1.131,3.758-.3.2-.528-.494-.9-1.681-.9S305.75,599.644,305.75,600.4Zm9.89-3.09c0,.678,1.188,1.507,2.671,1.959a5.469,5.469,0,0,0,5.143-.678c2.968-1.658,3.759-3.166,1.781-3.166a2.015,2.015,0,0,1-1.879-1.432c-.2-1.205-.593-1.356-2.077-.678-1.385.528-1.681,1.281-1.188,2.714.495,1.658.4,1.884-.593,1.055a4.344,4.344,0,0,0-2.435-.881C316.236,596.2,315.64,596.581,315.64,597.307ZM445.9,587.886c-2.769,2.487-2.077,3.015,3.066,2.487s9.1-2.11,9.1-3.693c0-1.281-.692-1.281-4.351.3-2.176.98-2.968,1.055-3.264.3a1.562,1.562,0,0,0-1.479-.879A5.065,5.065,0,0,0,445.9,587.886Zm-104.345-5.125a2.7,2.7,0,0,0,2.077,1.959c1.385.226,1.781-.076,1.484-1.507a2.7,2.7,0,0,0-2.078-1.96,4.388,4.388,0,0,0-.693-.068C341.526,581.186,341.314,581.605,341.554,582.761ZM121,569.721c-2.374,2.487-2.078,3.016,1.285,2.487,2.473-.3,4.056-2.487,2.968-3.919a1.541,1.541,0,0,0-1.182-.693C123.336,567.6,122.417,568.262,121,569.721Zm234.7-.678c-.791,1.055.3,2.262,2.077,2.262a1.435,1.435,0,0,0,1.385-1.508,1.646,1.646,0,0,0-1.8-1.531A2.11,2.11,0,0,0,355.7,569.043Zm666.321-4.371c-1.681,1.281-1.483,3.618.4,4.145,2.077.6,5.836-2.261,5.044-3.844a2.821,2.821,0,0,0-2.616-1.175A4.77,4.77,0,0,0,1022.018,564.672Zm-659.2.3c-.791.6.1,1.809,1.385,1.809a1.143,1.143,0,0,0-.2-2.257A1.986,1.986,0,0,0,362.818,564.973Zm-244-.075a.894.894,0,0,0,1.088.979c.593-.15,1.088-.6,1.088-.979s-.495-.829-1.088-.98a.876.876,0,0,0-1.088.98Zm933.464-26.606c-4.945,4.824-8.8,7.763-10.386,7.763a2.967,2.967,0,0,0-2.275,1.131c-.395.6-1.483,2.186-2.373,3.542a8.949,8.949,0,0,0-1.583,3.769,5.215,5.215,0,0,1-1.483,2.94,5.163,5.163,0,0,0-1.483,3.09c0,1.357.593,1.733,2.768,1.733,3.463,0,10.386-5.426,13.056-10.174,1.088-1.884,2.374-3.392,2.868-3.392s1.385-1.055,1.978-2.261c.495-1.281,1.484-2.261,1.979-2.261a1.129,1.129,0,0,0,1.087-1.131,4.363,4.363,0,0,1,1.781-2.487c1.681-1.281,8.11-8.894,8.11-9.572,0-1.508-7.615,2.11-8.407,4.07a1.649,1.649,0,0,1-1.88,1.13.733.733,0,0,0-.228-.032C1055.027,536.15,1053.535,537.068,1052.285,538.293Zm-686.2,20.576c0,.6.692,1.131,1.483,1.131s1.483-.528,1.483-1.131-.692-1.13-1.483-1.13S366.083,558.266,366.083,558.868Zm5.538-5.727c-1.187.979-1.384,1.582-.593,1.959,1.781.829,3.956-.226,3.956-1.884,0-.961-.309-1.451-.9-1.451A4.571,4.571,0,0,0,371.62,553.141Zm30.068-32.711a8.324,8.324,0,0,1-4.154,1.884c-1.187,0-2.373.9-3.264,2.412a14.6,14.6,0,0,1-3.856,4.3c-1.385,1.055-2.573,2.186-2.573,2.563a7.3,7.3,0,0,1-1.978,2.563,6.36,6.36,0,0,0-1.978,3.166c0,2.94-2.373,7.086-5.439,9.648-1.879,1.582-3.462,3.165-3.462,3.467,0,1.206,3.066,1.432,5.342.3a22.931,22.931,0,0,1,5.637-1.809c2.373-.528,3.461-1.206,3.659-2.336.3-1.281.791-1.507,3.066-1.206,2.373.377,2.966.151,4.055-1.884.693-1.281,1.879-2.336,2.671-2.336,2.769,0,6.231-3.844,6.231-6.859a29.39,29.39,0,0,1,1.088-6.632c.791-2.864.791-4.522-.1-6.482-.743-1.7-1.23-2.509-2-2.508C403.977,518.675,403.108,519.278,401.688,520.43Zm-8.9,27.887c1.286.6,3.165-.3,2.473-1.206a2.384,2.384,0,0,0-1.483-.678C392.391,546.432,391.7,547.79,392.786,548.317Zm735.456-8.894c-1.186.9-.593,3.241.89,3.241a1.5,1.5,0,0,0,1.484-1.431,1.861,1.861,0,0,0-1.592-2.068A1.367,1.367,0,0,0,1128.243,539.423Zm-959.969.6c-.99.9-.99,1.13.4,1.13.89,0,1.583-.527,1.583-1.13s-.2-1.13-.4-1.13A5.724,5.724,0,0,0,168.273,540.026ZM107.941,535.5c0,2.638,6.132,0,7.417-3.241.4-1.131.2-1.658-.79-1.658C112.59,530.6,107.941,534.072,107.941,535.5Zm1028.61-6.406c0,.377.692.753,1.483.753s1.483-.376,1.483-.753c0-.452-.692-.754-1.483-.754S1136.551,528.645,1136.551,529.1Zm6.231-1.733c-2.077.6-1.483,1.657.693,1.205,1.087-.226,1.978-.678,1.978-1.055,0-.4-.22-.585-.7-.585A7.279,7.279,0,0,0,1142.782,527.364Zm-1.88-3.468a1.32,1.32,0,0,0,.495,1.658c.89.678,1.385.6,2.078-.226a4.138,4.138,0,0,0,.988-1.733c0-.353-.5-.514-1.137-.514A3.609,3.609,0,0,0,1140.9,523.9Zm-126.8-5.275a2.594,2.594,0,0,0,1.681,1.281c.792.226,1.187-.076.89-.679a2.59,2.59,0,0,0-1.681-1.281,1.741,1.741,0,0,0-.471-.075C1014.062,517.867,1013.877,518.154,1014.107,518.621Zm6.331-9.346c-1.286.979-.594,4.748.89,4.748.988,0,1.483-.753,1.483-2.186,0-1.748-.708-2.865-1.578-2.865A1.315,1.315,0,0,0,1020.437,509.275Zm-755.238.6c-1.483,1.356-.495,2.638,2.077,2.638,1.188,0,1.88-.527,1.88-1.432a2.008,2.008,0,0,0-2.17-1.9A2.637,2.637,0,0,0,265.2,509.878Zm895.089-4.146c0,.452-1.088,1.507-2.473,2.412s-2.473,2.261-2.473,3.015c0,1.582,1.583,1.808,2.671.3a12.783,12.783,0,0,1,4.055-2.261c3.264-1.282,3.264-1.357,1.583-2.789a5.065,5.065,0,0,0-2.681-1.417C1160.541,504.994,1160.288,505.235,1160.288,505.732Zm-139.06,1.281c.79.6,3.56-.377,3.56-1.281,0-.377-.593-.753-1.385-.753C1021.822,504.979,1020.337,506.336,1021.228,507.014ZM417.512,492.543c-1.187,1.432-2.571,2.638-3.065,2.638s-.891.829-.891,1.959c0,1.583-.79,2.186-4.945,3.467-3.462,1.055-4.946,1.959-4.946,2.94,0,1.96.99,1.809,7.814-1.206,7.517-3.392,10.978-6.482,10.978-9.873,0-1.687-.538-2.535-1.42-2.535S418.9,490.8,417.512,492.543Zm688.873-17.712c-.791.98.3,2.261,1.978,2.261,1.385,0,2.671-1.809,1.78-2.562a3.027,3.027,0,0,0-1.663-.427A2.842,2.842,0,0,0,1106.385,474.831Zm37.09-16.808c0,.528.89.98,2.076.98,1.385,0,1.88-.377,1.682-1.281a2.008,2.008,0,0,0-1.952-1.579A1.77,1.77,0,0,0,1143.475,458.023Zm-3.958-17.712a3.5,3.5,0,0,1-.988,2.336c-6.627,6.256-7.022,7.311-2.671,7.311a3.522,3.522,0,0,0,3.363-2.11c1.484-2.488,3.462-4.9,4.649-5.577.594-.3.495-1.282-.2-2.412a3.349,3.349,0,0,0-2.541-1.931C1140.22,437.928,1139.517,438.745,1139.517,440.311Zm9.891,8.14c0,.377.692.754,1.483.754s1.483-.377,1.483-.754c0-.452-.692-.753-1.483-.753S1149.409,448,1149.409,448.451Zm24.726-23.063c0,.679.693,1.206,1.583,1.206s1.385-.377,1.187-.9a2.017,2.017,0,0,0-1.789-1.15C1174.576,424.54,1174.135,424.811,1174.135,425.388Zm15.529-8.064a1.325,1.325,0,0,0,.79,2.487,1.517,1.517,0,0,0,1.484-1.507c0-.966-.447-1.5-1.08-1.5A1.949,1.949,0,0,0,1189.663,417.324Zm45.891-4.372c-1.68.829-.791,2.94,1.386,3.618,2.472.678,3.856-.829,2.571-2.714-.77-1.038-1.292-1.509-2.033-1.509A4.869,4.869,0,0,0,1235.554,412.952Zm-941.672-41a1.118,1.118,0,0,0,.988,1.13,1.141,1.141,0,0,0,0-2.261A1.119,1.119,0,0,0,293.882,371.951Zm18.989-12.361a1.475,1.475,0,0,0,2.572,0c.2-.452-.4-.829-1.286-.829S312.674,359.138,312.871,359.591Zm1.781-11a1.119,1.119,0,0,0,.988,1.13c.593,0,.99.829.99,1.809a2.834,2.834,0,0,0,.988,2.337c1.681.829,2.276-1.733.891-4.146a4.134,4.134,0,0,0-2.926-2.252C315.035,347.464,314.652,347.815,314.652,348.586Zm18-7.085a1.474,1.474,0,0,0,2.571,0c.2-.452-.4-.829-1.285-.829S332.454,341.049,332.652,341.5Zm28.781-22.536c-3.461,2.94-4.649,5.2-3.165,5.954,2.077.9,5.143-.98,6.132-3.844.7-2.08.337-3.26-.692-3.26A3.955,3.955,0,0,0,361.434,318.966Zm31.946-35.047c-1.088.829-.593,1.733.89,1.733.791,0,1.484-.3,1.484-.678,0-.724-.863-1.283-1.634-1.283A1.209,1.209,0,0,0,393.38,283.919Zm98.312-78.536a1.119,1.119,0,0,0,.989,1.131,1.141,1.141,0,0,0,0-2.261A1.119,1.119,0,0,0,491.692,205.383Zm18.3-8.667c.4.829.2,1.507-.4,1.507a1.136,1.136,0,0,0-.1,2.261c1.286,0,3.166-3.617,2.374-4.6a1.576,1.576,0,0,0-1.192-.7C510.056,195.189,509.619,195.777,509.989,196.716Zm4.747-11.909a41.025,41.025,0,0,1-5.934,3.769c-2.176,1.13-3.264,2.336-3.264,3.542,0,1.658.3,1.733,3.561,1.357,4.451-.528,8.407-2.488,9-4.372a2.377,2.377,0,0,1,1.978-1.432c1.286,0,6.132-3.542,6.231-4.6,0-.226-1.978-.452-4.451-.452C518.3,182.622,516.912,183.074,514.736,184.807Zm641.6-11.531c0,.376-.79.9-1.78,1.13-2.275.6-7.319,6.331-6.527,7.387.4.452.1,1.055-.593,1.356-1.583.754-.495,3.241,1.285,2.864a2.892,2.892,0,0,0,1.484-1.959c.2-.9,1.879-2.563,3.758-3.618,1.88-1.13,3.363-2.412,3.363-2.939a2.916,2.916,0,0,1,1.385-1.884,1.652,1.652,0,0,0,.89-1.96,2.655,2.655,0,0,0-2.207-1.059C1156.8,172.593,1156.331,172.8,1156.331,173.276Zm-186.237,2.789c-.791.6.1,1.808,1.385,1.808a1.143,1.143,0,0,0-.2-2.256A1.989,1.989,0,0,0,970.094,176.064Zm174.962-3.844c-2.176,1.281-1.385,3.618,1.088,3.241a2.558,2.558,0,0,0,2.076-2.336c.227-1.3.064-1.925-.641-1.925A6.232,6.232,0,0,0,1145.057,172.221Zm16.617-3.392c-2.77.829-3.858,2.186-2.573,3.166.99.753,5.144-1.96,5.144-3.317,0-.322.022-.491-.24-.491A13.563,13.563,0,0,0,1161.673,168.829Zm-627.452-2.714c0,1.884,2.175,2.337,3.856.754a6.494,6.494,0,0,1,3.561-1.432c1.088,0,1.978-.452,1.879-.98a14.966,14.966,0,0,1-.2-2.412,1.8,1.8,0,0,0-1.978-1.507C539.265,160.538,534.221,164.457,534.221,166.115Zm-5.637-2.789c-1.484.452-1.681,3.241-.3,3.241a2.021,2.021,0,0,0,1.583-1.13c.676-1.288.341-2.191-.7-2.191A2.406,2.406,0,0,0,528.583,163.327Zm448.928-1.13a3.126,3.126,0,0,0,2.176,1.205c1.187.227,1.682-.075,1.385-.753a3.126,3.126,0,0,0-2.176-1.206,3.715,3.715,0,0,0-.684-.074C977.53,161.368,977.281,161.668,977.512,162.2Zm12.166-1.658a1.15,1.15,0,0,0,.3,1.658,1.1,1.1,0,0,0,1.681-.151,1.15,1.15,0,0,0-.3-1.658,1.369,1.369,0,0,0-.816-.322A1.116,1.116,0,0,0,989.677,160.538Zm177.731.452c.4,1.583,2.176,1.733,2.572.075.2-.753-.3-1.28-1.285-1.28S1167.211,160.237,1167.409,160.99Zm-156.467-15.149a.894.894,0,0,0,1.088.98c.593-.151,1.088-.6,1.088-.98s-.495-.829-1.088-.98a.875.875,0,0,0-1.088.98Zm-395.026-8.969c.593,1.884-2.176,5.5-4.254,5.577-1.78,0-1.582,2.261.2,2.261.792,0,1.484-.3,1.484-.678s.988-.829,2.076-.98a5.349,5.349,0,0,0,3.264-1.733,11.77,11.77,0,0,1,2.076-2.11c.593-.3.3-.9-.692-1.582a3.29,3.29,0,0,1-1.781-2.261c0-.678-.395-1.206-.791-1.206C615.916,134.158,615.323,135.139,615.916,136.872ZM630.85,138c-.1,0-2.077.528-4.351,1.206-4.352,1.13-5.539,2.714-2.671,3.543.792.226,1.187.829.792,1.281s-.3.753.2.527c.494-.151,2.768-.979,5.143-1.733,4.253-1.432,5.539-3.543,2.571-4.447a14.358,14.358,0,0,0-1.611-.392A.122.122,0,0,0,630.85,138Zm-37.287,2.638c0,1.356,2.868,2.94,3.956,2.11A8.56,8.56,0,0,0,599,139.208c.593-2.261.4-2.789-.791-2.789C596.53,136.42,593.564,139.133,593.564,140.641Zm105.729-8.517c.792,1.431.593,2.035-.494,2.337-3.066.9-1.286,2.035,2.868,1.808,3.363-.151,4.254-.527,4.451-1.808a2.526,2.526,0,0,0-.988-2.412,13.186,13.186,0,0,0-4.056-1.281,11,11,0,0,0-1.8-.285C698.546,130.482,698.7,130.918,699.293,132.124Zm329.155,1.808c-1.186.829-.791,1.733.792,1.733.791,0,1.483-.527,1.483-1.13a1,1,0,0,0-1.02-1.129A2.027,2.027,0,0,0,1028.448,133.932Zm-425.489-1.281a1.916,1.916,0,0,0,1.088.754c.2,0,.4-.377.4-.754,0-.452-.495-.753-1.088-.753C602.86,131.9,602.662,132.2,602.959,132.651Zm102.366-2.789a4.929,4.929,0,0,0,1.385,2.488c1.385,1.356,1.583,1.356,3.166.151,1.383-1.055,1.483-1.508.4-2.412a4.962,4.962,0,0,0-3.238-1.164C706.079,128.925,705.325,129.23,705.325,129.862Zm106.817-1.808c-.692,1.13-.593,1.808.593,2.713a3.9,3.9,0,0,0,2.671.905c1.78-.452,3.066-2.487,2.373-3.844a2.718,2.718,0,0,0-2.482-1.163A3.989,3.989,0,0,0,812.143,128.054Zm-95.938,1.205a1.12,1.12,0,0,0,.99,1.131,1.141,1.141,0,0,0,0-2.261A1.119,1.119,0,0,0,716.205,129.259Zm-84.365-1.431c-1.286.979-.693,1.808,1.385,1.808,1.087,0,1.878-.377,1.681-.9a2.366,2.366,0,0,0-2.076-1.208A1.616,1.616,0,0,0,631.84,127.828Zm73.09-4.3c-.89,1.055,3.858,3.92,5.638,3.392.989-.226,1.681-.753,1.681-1.205,0-.377-.4-.528-.89-.3-.4.226-1.583-.226-2.571-1.055a4.94,4.94,0,0,0-2.72-1.47A1.384,1.384,0,0,0,704.93,123.531Zm439.632.377c-1.483,1.357.495,2.563,2.176,1.281.791-.6.791-1.055.1-1.582a1.57,1.57,0,0,0-.954-.372A1.986,1.986,0,0,0,1144.562,123.908ZM725.7,115.994c.593,3.241.4,3.844-1.483,4.748-2.078.98-2.868,2.865-1.187,2.865.593,0,2.67-1.206,4.747-2.638a20.215,20.215,0,0,1,5.934-3.09c2.176-.452,4.055-4.07,2.769-5.577-.99-1.206-2.275-.905-3.462.829-1.088,1.431-1.285,1.431-2.868.376a7.1,7.1,0,0,0-3.461-1.205C725.3,112.3,725.107,112.829,725.7,115.994Zm-8.8,4.3c-.791.6.1,1.809,1.385,1.809a1.143,1.143,0,0,0-.2-2.257A1.987,1.987,0,0,0,716.9,120.29Zm123.334.226c.988,1.206,3.56.076,3.56-1.507a1.5,1.5,0,0,0-1.483-1.431C840.529,117.578,839.341,119.386,840.232,120.516Zm-167.248-8.743a50.09,50.09,0,0,1-5.539,3.015c-2.769,1.357-5.144,4.6-4.154,5.8,1.088,1.356,15.331-7.764,15.331-9.723,0-.545-.415-.81-1.111-.81A9.968,9.968,0,0,0,672.984,111.773Zm176.445,4.9a4.856,4.856,0,0,0-1.681,2.261c0,1.205,2.473,1.13,3.759-.075a2.05,2.05,0,0,0,.3-2.261c-.293-.669-.465-1.009-.767-1.009S850.282,115.947,849.43,116.673Zm308.485,1.055c-.1.452,1.088.9,2.671.9,1.978.076,3.461-.6,5.637-2.638,1.582-1.507,2.571-2.94,2.275-3.241-1.385-1.055-4.253.151-4.253,1.884,0,1.13-.495,1.281-2.968.9a14.194,14.194,0,0,0-1.706-.157C1158.3,115.386,1158.136,115.925,1157.914,117.728Zm-302.846-1.959a6.721,6.721,0,0,1,.593,2.035c0,1.205,1.978-1.055,1.978-2.337,0-.453-.693-.905-1.583-.905C854.969,114.562,854.672,114.939,855.068,115.768Zm14.341-13.115a24.149,24.149,0,0,1-4.154,3.845c-2.076,1.431-2.77,2.487-2.373,3.618.4.979-.2,2.412-1.484,3.768-1.78,1.733-1.878,2.336-.791,3.317,1.681,1.507,3.957.15,3.957-2.337,0-1.884,9.1-9.271,9.692-7.839.693,1.432,1.978.754,1.483-.754-.3-.828-.89-1.507-1.285-1.507-.495,0-.989-.753-1.187-1.657-.214-1.22-.888-1.848-1.7-1.848A2.883,2.883,0,0,0,869.409,102.653Zm-57.266,13.416c0,.377.693.754,1.483.754s1.484-.377,1.484-.754c0-.452-.693-.753-1.484-.753S812.143,115.617,812.143,116.069Zm-111.168-1.582c-.99.829-1.286,1.658-.792,1.884,1.483.678,4.154-.3,4.154-1.432,0-.957-.482-1.455-1.214-1.455A3.588,3.588,0,0,0,700.974,114.487ZM858.233,90.52a5.947,5.947,0,0,0-1.583,2.713,2.182,2.182,0,0,1-1.285,1.507c-2.473,1.131-4.847,4.673-4.352,6.407.4,1.13-.3,2.412-2.275,4.145-1.681,1.432-2.968,3.316-2.968,4.3a3.669,3.669,0,0,1-1.483,2.714c-1.879,1.13-1.978,3.015-.2,3.015s4.649-2.412,4.649-3.92c0-.678.89-1.959,2.076-2.939l1.978-1.809-.593,1.884c-.593,1.809-.593,1.809.989.377.792-.829,1.286-1.884,1.088-2.412a.947.947,0,0,1,.4-1.357c.593-.3.99-1.432.99-2.638s.4-2.336.89-2.563c.4-.226,1.088-1.959,1.385-3.844.3-2.186,1.187-3.844,2.274-4.522,1.385-.754,1.583-1.282.792-1.884a1.534,1.534,0,0,0-.927-.374C859.542,89.317,858.987,89.7,858.233,90.52ZM870.5,112.3c0,1.356.495,2.261,1.285,2.261,2.176,0,2.572-.828,1.484-2.713-.694-1.163-1.344-1.733-1.84-1.733C870.862,110.117,870.5,110.856,870.5,112.3Zm-17.8.377a.894.894,0,0,0,1.088.979c.593-.151,1.088-.6,1.088-.979s-.495-.829-1.088-.98a.875.875,0,0,0-1.088.98Zm-14.637-2.488c-1.484,1.13-1.484,2.638-.1,3.241,1.088.6,3.759-1.658,3.858-3.241,0-.574-.562-.876-1.322-.876A4.189,4.189,0,0,0,838.056,110.191Zm-10.88.753c-1.681,1.281-1.483,2.11.692,2.11,1.88,0,3.462-1.733,2.374-2.563a1.811,1.811,0,0,0-1.119-.416A3.385,3.385,0,0,0,827.177,110.944Zm340.431-2.337a1.318,1.318,0,0,0,.495,1.658c.89.678,1.384.6,2.076-.226a1.223,1.223,0,0,0-.912-2.228A2.148,2.148,0,0,0,1167.607,108.608Zm-471.182.98c1.186,1.13,3.956.829,3.956-.377,0-.377-1.188-.678-2.573-.678C695.633,108.533,695.435,108.684,696.425,109.588Zm134.509-3.166c0,2.638,1.583,4.221,3.066,3.091.989-.754.989-1.357.1-2.865-.721-1.216-1.549-1.84-2.177-1.84C831.344,104.809,830.934,105.338,830.934,106.422Zm-90.5,2.11c0,1.281,4.253,1.733,6.033.678a3.535,3.535,0,0,1,2.671-.226c1.978.528,3.165-.979,1.681-2.337-1.583-1.431-4.55-1.431-5.341,0a2.875,2.875,0,0,1-2.769.9q-.219-.011-.419-.011C741.08,107.541,740.437,107.854,740.437,108.533Zm151.818-3.015c0,.829.495,1.507.99,1.507.593,0,.99-.678.99-1.507s-.4-1.507-.99-1.507C892.75,104.011,892.255,104.689,892.255,105.518ZM754.58,101.523c-3.659.678-2.868,5.5.791,5.5.99,0,1.286-.527.792-1.884a2.9,2.9,0,0,1,.593-3.015c.772-.678.938-.977.284-.977A16.239,16.239,0,0,0,754.58,101.523Zm131.148,3.317a1.181,1.181,0,0,0,.4,1.582,1.937,1.937,0,0,0,3.165-1.356c0-.659-.768-1.026-1.626-1.026A2.525,2.525,0,0,0,885.728,104.84Zm-8.605-7.462a7.017,7.017,0,0,1-1.582,3.919c-1.187,1.13-1.187,1.432,0,2.337a10.234,10.234,0,0,0,3.758,1.281c1.978.226,2.473-.226,3.561-2.94a10.554,10.554,0,0,0,.593-5.652c-.53-1.921-1.772-2.817-3.019-2.817C878.892,93.507,877.342,94.878,877.123,97.378ZM722.337,98.886a11.094,11.094,0,0,0-1.681,2.789l-.692,1.808,3.066-1.657c1.681-.905,3.066-2.186,3.066-2.789,0-.669-.649-1.01-1.466-1.01A3.616,3.616,0,0,0,722.337,98.886Zm435.379-2.714c1.286,2.11,1.88,2.186,3.561.678.89-.829.791-1.356-.692-2.563a3.852,3.852,0,0,0-2.279-1.036C1157.134,93.252,1156.674,94.434,1157.716,96.172Zm-426.18-5.8a9.817,9.817,0,0,1-3.461.979c-3.264.3-4.154,3.995-1.088,4.749,2.77.6,8.209-2.487,7.813-4.447a1.974,1.974,0,0,0-1.891-1.787A2.272,2.272,0,0,0,731.536,90.369Zm432.115-.9c.2.226.89-.377,1.582-1.206.593-.9.693-1.583.1-1.583C1164.343,86.675,1162.958,88.936,1163.651,89.464Zm-430.138-5.05c-.989,1.281,1.187,2.789,2.473,1.808.791-.6.593-1.13-.4-1.733a2.369,2.369,0,0,0-1.254-.518A1.039,1.039,0,0,0,733.514,84.414Zm5.143-2.563c-1.383,1.055-.692,2.638,1.088,2.412.891-.15,1.681-.753,1.681-1.281a1.661,1.661,0,0,0-1.773-1.447A1.631,1.631,0,0,0,738.656,81.852Zm119.082-.9c-1.583,1.431-.593,2.713,1.978,2.713,1.484,0,1.978-.452,1.681-1.657-.24-1.237-.955-1.889-1.834-1.889A2.808,2.808,0,0,0,857.738,80.948ZM668.335,77.4c-1.088.829-.593,1.733.89,1.733.791,0,1.484-.3,1.484-.678,0-.724-.863-1.283-1.633-1.283A1.209,1.209,0,0,0,668.335,77.4Zm496.4-.3c1.781.527,2.077.15,2.968-3.468.593-2.11.4-2.789-.593-2.789C1163.948,70.848,1161.87,76.35,1164.738,77.1ZM655.379,74.541c.495,1.356,5.044,2.563,6.626,1.808,1.781-.753.693-3.316-1.78-3.995a12.44,12.44,0,0,0-3.324-.607C655.1,71.748,654.568,72.687,655.379,74.541Zm527.36-1.734c-1.385,1.055-.693,2.638,1.088,2.412.89-.151,1.681-.754,1.681-1.281a1.661,1.661,0,0,0-1.774-1.447A1.63,1.63,0,0,0,1182.74,72.807Zm-3.264-2.638c-.89,1.13,1.187,2.487,2.967,1.959.89-.3,1.582-.979,1.582-1.658,0-.715-1.078-1.124-2.22-1.124A3.13,3.13,0,0,0,1179.475,70.169Zm29.474-1.432c-1.583,1.206-1.484,2.865.1,2.865,1.681,0,3.659-1.507,3.659-2.789,0-.622-.578-.943-1.356-.943A4.133,4.133,0,0,0,1208.95,68.737Zm-137.873-.075c-3.066.678-3.858,2.186-1.286,2.186.791,0,1.483-.527,1.483-1.13,0-.564-.086-1.062-.178-1.062A.03.03,0,0,0,1071.076,68.662Zm116.311,1.959c.792.678,3.759-.678,4.353-1.884.2-.527-.3-.9-1.088-.9C1188.872,67.833,1186.5,69.943,1187.387,70.621Zm-27.4-5.878c-1.978,2.939-2.078,3.844-.693,3.844.593,0,1.483-.905,2.077-2.035.987-2.067.974-3.4.345-3.4C1161.341,63.149,1160.737,63.636,1159.992,64.743Zm33.924-1.055c-.99.829-.99,1.431-.2,2.035,1.483,1.131,4.352.151,3.956-1.431a1.754,1.754,0,0,0-1.737-1.513A3.109,3.109,0,0,0,1193.916,63.688Zm20.177.829c.593,1.13.791,1.13,2.571-.076,1.088-.753,1.978-1.808,1.978-2.412,0-.528-.593-.98-1.385-.98C1215.279,61.049,1213.4,63.085,1214.092,64.517Zm-155.974-6.03c-.79.6.1,1.809,1.385,1.809a1.143,1.143,0,0,0-.2-2.257A1.988,1.988,0,0,0,1058.119,58.487Zm-.692-17.184c-2.374,1.431-2.076,3.166.593,3.166,2.078,0,1.682,2.11-.791,4.522-1.285,1.205-3.066,3.015-4.054,4.07a6.153,6.153,0,0,1-3.463,1.959c-3.56,0-5.637,3.392-2.571,4.3.89.226,2.671-.527,4.747-2.11,1.781-1.431,5.539-4.07,8.309-5.878,5.439-3.543,6.527-5.954,3.164-6.632-1.385-.3-1.88-.829-1.483-1.733a2.015,2.015,0,0,0-.791-2.186,2.363,2.363,0,0,0-1.279-.411A4.735,4.735,0,0,0,1057.427,41.3Zm165.567,13.114a6.169,6.169,0,0,1-2.275,2.638c-.891.527-1.088.9-.4.979a6.351,6.351,0,0,0,2.671-1.13,5.219,5.219,0,0,1,2.274-1.13c1.088-.076,5.736-4.9,5.736-6.105a.92.92,0,0,0-1.012-1.049C1228.135,48.62,1224.256,51.476,1222.994,54.417Zm-15.627-12.059a3.318,3.318,0,0,0,1.978.6c1.286,0,1.88-.98,1.483-2.563-.1-.376.593-1.28,1.484-2.035,1.483-1.281,1.483-1.432.2-1.432C1210.828,36.931,1206.575,41.378,1207.367,42.358Zm-125.473,766.02c-.738-1.406-1.845-2.53-2.583-2.53-.614,0-1.23-.374-1.23-.75s1.477-.656,3.444-.656c2.461.094,3.445.656,3.69,2.25.451,2.064-.34,3.321-1.36,3.321C1083.206,810.012,1082.467,809.506,1081.894,808.378ZM1033.8,799.1c-3.075-2.811-3.075-3.561,0-3.561,3.2,0,3.2-2.531,0-3.281-1.844-.469-2.214-1.125-1.6-3.28.614-2.343.123-2.905-2.46-3.655a11.644,11.644,0,0,1-3.936-1.875,4.186,4.186,0,0,0-3.075-1.031,3.455,3.455,0,0,1-2.951-1.593c-1.476-2.905.246-3.374,19.924-5.716,3.689-.469,7.133-1.406,7.624-2.156.616-.656,2.583-1.312,4.552-1.406,1.844-.094,4.058-.281,4.919-.281.738-.094,1.107-.937.738-2.25-.493-1.5-.37-1.781.737-1.031,2.091,1.5.247,6.654-3.074,8.341-1.6.75-2.952,2.062-2.952,2.9,0,1.125.861,1.313,4.059.844,2.09-.375,4.673-1.312,5.411-2.155.861-.75,1.968-1.124,2.46-.75s0,1.124-1.107,1.594c-1.23.468-3.568,2.718-5.166,4.874a42.7,42.7,0,0,1-7.625,7.216,23.791,23.791,0,0,0-5.534,5.343c-.491,1.124-2.705,2.718-4.8,3.561a11.138,11.138,0,0,1-3.394.984C1035.64,800.739,1035.017,800.229,1033.8,799.1Zm8.118-10.028c-1.722,1.874-1.476,4.593.369,4.593,1.476,0,6.273-4.218,6.273-5.436,0-.763-.775-1.107-1.827-1.107A7.322,7.322,0,0,0,1041.923,789.071Zm9.962-6.935a1.648,1.648,0,0,0,.983,3.093,1.886,1.886,0,0,0,1.845-1.875c0-1.2-.556-1.863-1.343-1.863A2.426,2.426,0,0,0,1051.885,782.136Zm-24.6-2.906c-1.107.938,1.477,3.187,3.69,3.187.984,0,1.6-.656,1.353-1.593-.258-1.248-1.906-2.082-3.377-2.082A2.743,2.743,0,0,0,1027.286,779.23Zm10.209,1.875c0,1.593,2.705,1.312,3.443-.375.246-.656-.37-1.124-1.476-1.124S1037.5,780.262,1037.5,781.105ZM31.575,796.85c-.37-.281.369-1.124,1.6-1.874,3.444-1.874,3.936-1.593,1.353.563a5.427,5.427,0,0,1-2.676,1.384A.45.45,0,0,1,31.575,796.85Zm34.314-2.718a6.367,6.367,0,0,1,3.566-1.406c1.6.094,1.6.281-.369,1.406a9.154,9.154,0,0,1-3.536,1.336C64.9,795.468,64.9,795.022,65.889,794.132Zm-23.983-2.343a2.7,2.7,0,0,1,1.968-.937c.738,0,.861.375.491.937a3.089,3.089,0,0,1-1.967.937C41.66,792.726,41.537,792.258,41.906,791.789Zm43.046-6.56a2.7,2.7,0,0,1,1.968-.938c.737,0,.861.376.491.938a3.094,3.094,0,0,1-1.968.937C84.706,786.166,84.583,785.7,84.952,785.229Zm653.682-5.624c0-1.031.491-1.874,1.107-1.874s.86.843.492,1.874-.861,1.874-1.107,1.874S738.634,780.636,738.634,779.605Zm-645.073-.563c0-1.218.614-2.249,1.475-2.249,2.582,0,2.829,1.593.615,3.092a4.6,4.6,0,0,1-1.669.9C93.6,780.785,93.561,780.254,93.561,779.043Zm649.254-5.436c-.492-.844.616-2.718,2.461-4.4,1.721-1.593,3.2-3.374,3.2-4.03a3.656,3.656,0,0,1,1.477-2.25c2.091-1.593,3.444-1.405,3.444.375,0,3.153-7.327,10.716-9.861,10.715A.738.738,0,0,1,742.815,773.607Zm323.583-.563a2,2,0,0,1,1.353-.937c.246,0,.492.375.492.937,0,.469-.615.937-1.353.937C1066.275,773.982,1066.028,773.514,1066.4,773.045Zm-959.923-.468c0-.75.861-1.406,1.845-1.406s1.845.374,1.845.844-.861,1.031-1.845,1.406a3.107,3.107,0,0,1-.755.106C106.89,773.525,106.474,773.209,106.474,772.577Zm25.705-2.062c-1.968-1.5,2.091-5.9,5.657-5.9a8.986,8.986,0,0,0,4.919-1.874c2.583-2.25,5.534-2.437,5.534-.469,0,.844-1.107,1.406-3.075,1.406-1.844,0-3.074.562-3.074,1.312,0,.656-1.6,1.5-3.567,1.781-2.214.374-3.689,1.312-4.181,2.718-.391,1.013-.733,1.5-1.214,1.5A1.8,1.8,0,0,1,132.18,770.514Zm508.064-2.249c0-.469.737-.562,1.721-.282a2.666,2.666,0,0,0,2.583-.562c.737-.844,1.23-.844,1.967.094.493.75.616,1.593.123,1.968a2.95,2.95,0,0,1-1.619.325C643.067,769.808,640.243,769.087,640.243,768.265Zm-602.027-.844a2.7,2.7,0,0,1,1.968-.937c.737,0,.86.375.491.937a3.091,3.091,0,0,1-1.968.938C37.971,768.359,37.847,767.89,38.217,767.421Zm1008.257.656c-.37-.281-.246-.937.246-1.5.984-1.312,3.075-1.312,3.075-.187,0,.906-1.595,1.872-2.665,1.872A1.069,1.069,0,0,1,1046.473,768.077Zm-928.56-2.062a4.76,4.76,0,0,1,3.566-1.406h2.705l-2.582,2.062a6.291,6.291,0,0,1-3.186,1.447C117.527,768.118,117.237,767.407,117.913,766.016ZM1110.18,760.3c1.845-1.687,3.566-1.687,3.566.094a2.4,2.4,0,0,0,1.845,1.968c2.214.656.246,4.124-2.337,4.124C1110.8,766.484,1108.459,761.892,1110.18,760.3Zm-35.789,3.187a8.929,8.929,0,0,1,.738-3,2.455,2.455,0,0,1,1.844-1.5c1.722,0,1.352,2.249-.737,4.312-.774.786-1.209,1.185-1.467,1.185C1074.536,764.483,1074.45,764.154,1074.391,763.485ZM34.526,761.8a2,2,0,0,1,1.354-.937c.246,0,.491.374.491.937,0,.468-.614.937-1.353.937C34.4,762.735,34.158,762.266,34.526,761.8ZM152.841,758.7c1.477-1.124,2.706-.656,2.091.75-.491.75-1.23,1.406-1.844,1.406C151.734,760.861,151.611,759.548,152.841,758.7ZM1.566,758.518a8.41,8.41,0,0,1,5.042-2.343c1.477,0,2.706-.374,2.706-.843S11.036,754.3,13,753.925c2.952-.375,3.689-1.031,3.689-2.905,0-1.687.615-2.343,2.461-2.343a3.29,3.29,0,0,0,3.2-2.249c.493-1.5,1.354-2.156,2.461-1.781,1.23.375,2.337-.375,3.2-2.156a11.067,11.067,0,0,1,5.165-4.218c5.289-2.156,5.534-2.062,6.887.656,1.107,2.249.738,2.811-3.321,5.623a98.55,98.55,0,0,1-13.651,6.654c-4.919,1.969-9.593,4.03-10.331,4.686a5,5,0,0,1-2.706,1.218A5.121,5.121,0,0,0,7.1,758.986a6.6,6.6,0,0,1-4.674,1.875C-.648,760.861-.648,760.861,1.566,758.518Zm21.277,1.5a1.192,1.192,0,0,1,1.23-1.032c.738,0,1.23.188,1.23.375,0,.281-.491.75-1.23,1.031a1.39,1.39,0,0,1-.571.132C23.127,760.524,22.843,760.336,22.843,760.018Zm1056.468-3.374c-.984-.469-.984-1.031.124-1.969,1.6-1.5,3.074-1.687,4.058-.468.838.958-1.627,2.6-3.364,2.6A1.928,1.928,0,0,1,1079.31,756.644Zm-23.122-3.749c-.246-2.624-.86-5.061-1.6-5.623a3.518,3.518,0,0,1-1.107-2.531c0-.938.615-1.687,1.23-1.687.738,0,1.23.749,1.23,1.781a16.033,16.033,0,0,0,1.845,5.155c1.6,2.811,1.6,3.748.369,5.529-.563.716-.929,1.131-1.187,1.131C1056.551,756.649,1056.417,755.56,1056.188,752.894Zm15.374-4.5c2.338-1.874,6.888.281,5.781,2.718-.861,1.781-4.674,5.061-6.027,5.061C1070.455,756.174,1070.578,749.146,1071.562,748.4Zm26.32-.281c.615-2.437.861-4.686.493-4.874-.37-.281-1.968,0-3.69.562s-3.075.75-3.075.282c0-1.124,2.461-6.748,3.936-9.185.861-1.219.984-5.342.615-10.5-.861-9.09.246-11.153,5.165-9.934,1.968.468,3.075-.094,5.043-2.53,2.582-3.187,3.443-10.122,1.23-10.122a1.391,1.391,0,0,1-1.23-1.406c0-1.968.491-1.781,5.412,1.968,3.689,2.812,4.8,3.187,6.272,2.25,1.23-.75,1.477-1.593.738-2.25a15.651,15.651,0,0,1-1.845-4.779l-.86-3.749,2.214,2.531c1.23,1.5,2.951,2.624,3.812,2.624,1.722,0,6.273-6.935,6.4-9.559,0-.843.984-2.811,2.091-4.4,2.951-3.749,5.165-2.156,2.951,2.061a45.56,45.56,0,0,0-2.828,6.561,8.875,8.875,0,0,1-3.567,4.5c-1.722.656-2.338,1.969-2.338,4.593,0,3.092.37,3.748,2.461,3.748,1.353,0,2.459-.468,2.459-.937,0-.562.614-.937,1.23-.937a1.112,1.112,0,0,1,1.23,1.031c0,2.25-12.422,20.151-14.758,21.275-2.952,1.406-3.075,3.187-.492,6.28,2.706,3.187.492,6.279-4.181,5.53-2.952-.469-3.69-.095-5.534,2.9a14.012,14.012,0,0,0-2.091,5.248,2.718,2.718,0,0,1-2.337,2.437,3.929,3.929,0,0,0-2.952,2.343c-.431,1.226-.888,1.745-1.278,1.745C1097.74,753.421,1097.211,751.051,1097.882,748.115Zm.493-28.492a1.429,1.429,0,0,0,.369,2.062,1.362,1.362,0,0,0,2.091-.187,1.43,1.43,0,0,0-.37-2.062,1.7,1.7,0,0,0-1.015-.4A1.388,1.388,0,0,0,1098.374,719.623Zm19.432-5.343c.246.563-.984,1.969-2.582,3-4.428,2.905-3.075,5.436,2.214,4.124,3.689-1.031,4.182-1.687,3.812-4.874a1.394,1.394,0,0,1,1.476-1.593c2.46,0,3.812-4.5,1.967-6.185a4.338,4.338,0,0,0-2.459-1.312C1120.758,707.439,1117.192,712.969,1117.806,714.28Zm99.989,35.8c-.369-.75-.123-1.406.492-1.406,1.6,0,2.705,1.687,1.353,2.249a1.024,1.024,0,0,1-.429.093A1.827,1.827,0,0,1,1217.8,750.083ZM175.348,746.8c2.214-1.593,5.165-2.811,6.518-2.811,2.582,0,2.582,0-.124,1.5-1.475.75-2.582,2.156-2.459,2.906.246.937-.861,1.781-2.951,2.25a12.707,12.707,0,0,1-2.449.3C171.332,750.947,171.8,749.357,175.348,746.8Zm911.342,2.343a2.2,2.2,0,0,1-1.23-1.5c0-.562.614-.656,1.23-.374a1.922,1.922,0,0,1,1.229,1.5.478.478,0,0,1-.542.529A2.017,2.017,0,0,1,1086.69,749.146Zm-23.368-4.124a1.191,1.191,0,0,1,1.23-1.031c.738,0,1.23.187,1.23.375,0,.282-.491.75-1.23,1.031a1.387,1.387,0,0,1-.571.132C1063.606,745.529,1063.322,745.34,1063.322,745.022Zm-877.028-2.343c1.967-1.781,5.41-1.968,4.8-.375a4.719,4.719,0,0,1-3.444,1.5c-.735.08-1.27.13-1.63.13C185.113,743.933,185.326,743.618,186.294,742.678Zm1050.442-2.061a2.037,2.037,0,0,1,.86-1.594,1.254,1.254,0,0,1,1.477-.187c.245.281-.123,1.031-.861,1.593a2.26,2.26,0,0,1-1.147.556C1236.856,740.986,1236.736,740.866,1236.736,740.617ZM173.5,739.3a2.5,2.5,0,0,1,1.968-.937,1,1,0,0,1,1.107.937c0,.469-.861.937-1.968.937C173.626,740.242,173.135,739.773,173.5,739.3Zm28.164-4.592c1.354-1.032,3.075-1.969,4.059-1.969,2.582,0,1.845.75-2.337,2.437l-4.059,1.593Zm885.884-8.81c1.475-1.125,1.6-.75,1.6,4.967,0,3.093-.491,5.624-1.23,5.624C1086.567,736.493,1086.2,726.839,1087.551,725.9ZM51.13,733.681c0-1.218.615-1.874,1.6-1.686a2.228,2.228,0,0,1,1.475,1.686,1.984,1.984,0,0,1-1.475,1.593,1.564,1.564,0,0,1-.43.065C51.569,735.339,51.13,734.711,51.13,733.681Zm1022.524.282c-1.6-.469-1.6-.656-.246-1.312,2.091-1.031,2.214-1.031,2.214.562,0,.6-.371.913-1.023.913A3.314,3.314,0,0,1,1073.653,733.963ZM211.629,729a2,2,0,0,1,1.354-.937c.246,0,.492.375.492.937,0,.468-.614.937-1.353.937C211.506,729.932,211.26,729.463,211.629,729Zm-151.89-1.031c0-.469,1.6-.844,3.69-.844,2.705,0,3.444.374,2.951,1.405-.491.75-1.23,1.406-1.721,1.406C62.568,729.932,59.739,728.808,59.739,727.964ZM74.5,719.623c0-1.031.614-1.874,1.23-1.874.737,0,1.23.843,1.23,1.874s-.493,1.874-1.23,1.874C75.113,721.5,74.5,720.654,74.5,719.623Zm-11.193,0c3.075-2.062,5.043-2.437,5.043-.937,0,1.031-4.059,2.811-6.4,2.811C61.092,721.4,61.584,720.654,63.305,719.623Zm1020.925-1.781c0-2.062.615-3.937,1.6-4.124,3.69-1.219,4.92.468,1.353,1.968a2.1,2.1,0,0,0-1.353,2.906c.37,1.031.123,2.249-.491,2.53a.35.35,0,0,1-.147.034C1084.645,721.156,1084.231,719.737,1084.231,717.842ZM93.561,712.125a2,2,0,0,1,1.353-.937c.246,0,.491.374.491.937,0,.468-.614.937-1.353.937C93.438,713.062,93.191,712.593,93.561,712.125Zm.614-2.811a6.349,6.349,0,0,1-1.107-4.217c0-2.719,0-2.719,1.722.937,1.2,2.609,1.384,4.355.723,4.355C95.225,710.388,94.774,710.054,94.175,709.314Zm974.066-.938c-1.476-.749-1.353-.937.984-.937,1.476,0,2.706.375,2.706.937,0,.609-.339.914-.969.914A6.613,6.613,0,0,1,1068.242,708.376ZM107.705,703.69a4.055,4.055,0,0,1-1.231-2.156c0-1.218,2.583-.655,3.321.75.642,1.345.133,2.251-.674,2.251A1.927,1.927,0,0,1,107.705,703.69Zm986.364-2.062c.123-2.905.123-3,1.844-1.218,2.091,1.968,1.845,3.467-.369,4.03a1.278,1.278,0,0,1-.236.023Q1094.069,704.463,1094.07,701.628ZM99.71,700.035a1.859,1.859,0,0,1,2.091-.469c.738.375.738.937-.123,1.593a2.472,2.472,0,0,1-1.456.563C99.341,701.722,98.878,700.986,99.71,700.035Zm12.3-1.969a2.7,2.7,0,0,1,1.968-.937c.738,0,.861.375.493.937A3.1,3.1,0,0,1,112.5,699C111.763,699,111.64,698.535,112.009,698.066Zm989.071-5.716a2.592,2.592,0,0,0,.984-2.812c-.491-1.031-.368-1.781.246-1.781,3.936.094,6.641,7.872,3.075,8.81-1.107.281-2.706.749-3.443,1.031a1.254,1.254,0,0,1-.471.1C1099.733,697.7,1099.154,693.472,1101.079,692.35Zm12.176-1.406c-.738-1.5-.491-1.593,2.214-.75,1.107.281,1.968,1.124,1.968,1.874,0,.582-.427.839-1.017.839A4,4,0,0,1,1113.255,690.944Zm9.347-7.217c1.354-1.874,1.477-1.968,1.968-.281a3.374,3.374,0,0,1-1.476,3.187,3.045,3.045,0,0,1-1.551.768C1120.693,687.4,1121.015,685.877,1122.6,683.727Zm-10.208.469c2.829-4.03,5.289-12.559,3.936-13.59a3.19,3.19,0,0,1-1.353-1.969c0-.468,1.107-.094,2.583.937,1.968,1.312,2.337,2.437,1.721,4.78-.983,4.124-5.41,11.528-6.887,11.528C1111.657,685.883,1111.657,685.227,1112.394,684.2ZM143,680.916c1.107-.937,2.829-.844,2.829.187,0,.469-.861,1.031-1.845,1.406a3.6,3.6,0,0,1-.874.123C141.988,682.632,141.793,681.837,143,680.916Zm963.49-11.341c-.123-1.031.246-1.593.615-1.218a1.517,1.517,0,0,1,.123,1.781c-.142.288-.284.424-.4.424C1106.631,670.561,1106.491,670.21,1106.491,669.575Zm-931.143-1.968a2.031,2.031,0,0,1-1.23-1.5c0-.468.614-.844,1.23-.844a1.338,1.338,0,0,1,1.23,1.5c0,.581-.3.937-.772.937A1.293,1.293,0,0,1,175.348,667.607Zm950.7-4.218c0-.562.246-.937.492-.937a2,2,0,0,1,1.352.937c.37.469.123.937-.491.937C1126.661,664.326,1126.047,663.858,1126.047,663.389Zm107.614-4.686c-.369-.563-.123-.938.492-.938.739,0,1.353.375,1.353.938,0,.468-.246.937-.491.937A2.387,2.387,0,0,1,1233.661,658.7Zm-872.724-4.968a7.169,7.169,0,0,1,2.091-1.593c.984,0,.37.75-1.6,1.968a6.806,6.806,0,0,1-1.554.84C359.708,654.95,360.069,654.55,360.937,653.736Zm-151.767-4.03c-2.459-1.406-1.475-1.593,2.337-.469,1.354.375,1.845.938,1.23,1.219a1.329,1.329,0,0,1-.682.147A6.651,6.651,0,0,1,209.169,649.706Zm167.018-6.373c-.369-.281,0-1.124.861-1.968,1.968-1.781,3.689-1.781,3.689,0,0,1.155-1.967,2.309-3.434,2.309A1.711,1.711,0,0,1,376.188,643.332Zm35.913-4.311a3.512,3.512,0,0,1,2.582-.937c.984,0,1.475.375,1.107.937a3.941,3.941,0,0,1-2.582.937C412.224,639.958,411.731,639.49,412.1,639.021Zm-256.553-5.435c-1.353-.937-1.23-1.125.369-1.125,1.107,0,2.214-1.125,2.706-2.811.369-1.594,1.353-2.812,2.09-2.812s3.321-1.312,5.658-2.812c4.3-2.905,7.01-3.655,6.272-1.687-.246.656-2.214,1.875-4.428,2.625-2.091.749-3.935,1.874-3.935,2.342,0,.563-1.6,2.437-3.568,4.217-2,1.782-3.1,2.57-3.983,2.57A1.813,1.813,0,0,1,155.547,633.586Zm1042.078-3.749c.738-.562,1.6-.937,1.845-.749.738.562-1.107,3.373-2.213,3.373C1195.658,632.46,1195.9,631.149,1197.625,629.836Zm-1057.451,2.25c-6.4-.281-7.625-1.031-5.657-3.374,1.721-2.25,1.968-6.561.246-6.561-.615,0-2.091,1.031-3.2,2.343-1.6,1.874-2.46,2.156-4.182,1.406a19.022,19.022,0,0,0-6.272-.937h-3.936l.738-6.28c.491-5.342,1.107-6.561,3.812-8.06,1.722-.938,3.2-2.531,3.2-3.562,0-.937,1.107-2.249,2.459-2.905s2.461-1.593,2.461-2.156c0-.468,1.967-2.624,4.428-4.592,4.428-3.655,4.428-3.749,2.09-5.248-1.967-1.125-2.214-1.874-1.23-3.562.861-1.5,1.845-1.968,3.2-1.5,1.107.374,3.936,1.124,6.273,1.781,5.042,1.406,4.673,3-.493,2.531l-3.566-.375.984,6.467c.984,7.5,1.23,7.779,4.428,7.779,2.214,0,2.46-.375,1.722-2.811a4.961,4.961,0,0,1,1.23-5.248c1.844-2.25,7.748-4.687,8.978-3.749.246.282-1.23,2.624-3.444,5.343-3.2,4.123-3.69,5.248-2.583,7.029,1.722,2.905,6.888,3.842,9.839,1.874,2.829-1.968,4.674-1.874,6.273.375a2.508,2.508,0,0,0,3.444,1.124c2.706-1.031,7.748.844,6.518,2.437a2.857,2.857,0,0,1-2.952.563,9,9,0,0,0-4.181.094,19.532,19.532,0,0,1-5.534.562c-3.075-.187-3.445.094-3.445,2.531a6.1,6.1,0,0,1-2.459,4.4c-1.353.938-2.46,2.156-2.46,2.625,0,1.5-5.043,5.342-7.01,5.342-.861,0-2.214,1.031-3.075,2.25-.925,1.644-1.678,2.111-4.625,2.111C141.609,632.135,140.943,632.117,140.174,632.086Zm6.273-21.181c-.984,1.312,1.6,3.748,3.935,3.748s3.566-2.811,1.476-3.842a7.285,7.285,0,0,0-3.095-.8A2.977,2.977,0,0,0,146.446,610.9Zm81.172,19.681a2,2,0,0,1,1.353-.937c.246,0,.493.375.493.937,0,.469-.615.937-1.354.937C227.5,631.523,227.249,631.055,227.618,630.586Zm20.293-11.716a1.391,1.391,0,0,1,1.23-1.405,1.418,1.418,0,0,1,0,2.811A1.392,1.392,0,0,1,247.911,618.871Zm988.579-7.5c.37-1.781.984-2.155,1.845-1.5.984.75.861,1.5-.615,2.531-.737.561-1.181.882-1.4.882C1236.028,613.287,1236.138,612.713,1236.489,611.373ZM110.165,604.438c0-7.685,1.107-10.4,4.428-10.4,4.058,0,4.919-1.874,1.721-3.748-1.6-.938-2.46-2.062-1.967-2.719,1.475-1.687,4.181-1.218,6.272,1.219,1.968,2.155,1.722,3.28-1.353,8.716a22.571,22.571,0,0,0-2.46,6.092c-.973,3.657-2.767,5.568-4.245,5.568C111.236,609.162,110.165,607.627,110.165,604.438Zm1148.217,2.437c.369-.937,1.107-1.406,1.477-1.124s0,1.031-.861,1.687a2.935,2.935,0,0,1-.986.546C1257.816,607.983,1257.955,607.632,1258.381,606.874ZM160.712,604.906c-2.459-1.124-1.475-3.187,2.706-5.624a31.051,31.051,0,0,1,4.3-2.437,8.472,8.472,0,0,1-.493,2.531c-.873,2.909-3.872,5.671-5.827,5.671A1.648,1.648,0,0,1,160.712,604.906ZM13.619,509.684c-.37-.563-.124-.937.491-.937.738,0,1.353.375,1.353.937,0,.469-.246.937-.491.937A2.378,2.378,0,0,1,13.619,509.684ZM219.747,359.165c.861-.749,1.968-1.031,2.582-.562,1.23.937,0,3.937-1.476,3.937C218.886,362.54,218.148,360.572,219.747,359.165Zm78.589-79.1c0-.563.614-.937,1.23-.937.738,0,1.23.375,1.23.937a1.11,1.11,0,0,1-1.23.937C298.951,281,298.336,280.532,298.336,280.064Zm29.025-76.009c.861-1.125,2.582-.282,4.182,2.062.861,1.124.861,1.781.123,1.781C329.821,207.9,326.5,204.992,327.361,204.055Z" transform="translate(0)" fill="#522681" opacity="0.05"/>
</svg>
